<svg width="408" height="505" viewBox="0 0 408 505" fill="none" xmlns="http://www.w3.org/2000/svg">
<path d="M246.646 1.54186L234.915 0.609019C127.823 -7.9827 37.0987 75.4597 38.3433 179.517L38.1978 178.98L1.73483 244.024C-3.1395 252.758 2.78616 263.498 12.9182 264.315L29.2828 265.622C36.812 266.23 42.6877 272.207 43.0488 279.562L44.1457 302.207L44.1935 303.117C54.0144 302.977 67.6583 300.503 76.9291 289.624C79.4597 286.659 83.9772 286.262 87.0345 288.737C90.0706 291.211 90.4753 295.624 87.9446 298.588C75.2321 313.484 57.5985 316.94 44.8636 317.172L45.0091 320.068L46.6328 353.735C47.8732 379.206 68.5663 399.495 94.2983 401.059C95.3751 401.152 96.4487 401.174 97.5489 401.174H136.162C141.322 401.174 145.504 405.26 145.504 410.304V485.062C145.504 496.059 154.631 505 165.909 505H336.463C347.74 505 356.869 496.059 356.869 485.062V366.923C356.869 362.139 358.588 357.516 361.767 353.874C383.772 328.494 398.18 296.416 401.192 260.766L407.402 186.732C415.336 92.2219 343.368 9.29413 246.646 1.54186ZM361.314 131.694C361.314 163.026 335.321 188.424 303.257 188.424H145.274C113.208 188.424 87.2172 163.026 87.2172 131.694V124.429C87.2172 102.897 103.214 84.5817 124.439 81.8724C130.606 81.0858 135.922 81.7416 139.557 82.5333C142.138 83.0937 144.693 81.3888 145.006 78.8258C147.547 58.0884 165.66 41.9613 187.557 41.9613C200.261 41.9613 212.034 47.3893 220.069 56.5725C221.867 58.6301 225.119 58.6301 226.921 56.5725C238.037 43.8768 256.303 38.4219 274.328 44.461C295.943 51.7028 300.889 69.9436 301.997 79.1371C302.31 81.7676 304.917 83.5772 307.537 82.9017C311.71 81.8246 316.043 81.3639 320.382 81.5528C343.336 82.5458 361.315 101.407 361.315 124.493L361.314 131.694Z" fill="#FFE1C5"/>
<path d="M257.895 114.684H235.121V92.6753C235.121 88.5166 231.513 85.1454 227.06 85.1454C222.607 85.1454 218.999 88.5166 218.999 92.6753V114.684H195.439C190.985 114.684 187.378 118.055 187.378 122.214C187.378 126.373 190.985 129.744 195.439 129.744H218.999V151.017C218.999 155.176 222.607 158.547 227.06 158.547C231.513 158.547 235.121 155.176 235.121 151.017V129.744H257.895C262.348 129.744 265.956 126.373 265.956 122.214C265.956 118.055 262.348 114.684 257.895 114.684Z" fill="#FFE1C5"/>
</svg>
