<svg width="537" height="548" viewBox="0 0 537 548" fill="none" xmlns="http://www.w3.org/2000/svg">
<g clip-path="url(#clip0_1043_6878)">
<path d="M200.762 350.091C206.178 348.635 211.52 346.909 216.771 344.919C217.006 344.833 217.228 344.666 217.459 344.559C222.958 348.879 227.408 354.432 230.463 360.79C233.519 367.148 235.099 374.138 235.079 381.22C235.09 383.492 235.986 385.666 237.568 387.265C239.15 388.863 241.29 389.755 243.516 389.744C245.742 389.732 247.873 388.819 249.44 387.204C251.006 385.59 251.88 383.406 251.869 381.134C251.925 371.64 249.858 362.259 245.826 353.703C241.794 345.147 235.904 337.641 228.602 331.758C232.833 323.229 236.139 314.254 238.461 304.992C255.234 232.579 229.273 180.75 161.309 150.944C127.18 135.981 68.7855 115.431 79.2025 66.3037C79.5727 64.5562 79.3976 62.7342 78.7017 61.0934C78.0058 59.4526 76.824 58.0752 75.3222 57.1545C73.8203 56.2338 72.0737 55.8159 70.3273 55.9596C68.581 56.1032 66.9225 56.801 65.5845 57.9553C34.0148 85.1284 12.7655 109.857 4.40005 149.09C-1.35437 174.3 -1.62795 200.49 3.59853 225.819C8.82501 251.148 19.4247 275.001 34.6524 295.702C62.0101 333.621 109.455 355.575 158.683 355.575C172.88 355.585 187.021 353.739 200.762 350.091ZM48.1739 285.555C34.3857 266.798 24.7905 245.187 20.0627 222.24C15.3349 199.294 15.5893 175.569 20.8079 152.734C26.7946 124.636 40.7608 104.604 61.3346 84.7045C65.7984 131.871 118.29 150.721 154.676 166.673C215.726 193.444 237.156 236.145 222.124 301.057C220.222 308.358 217.67 315.466 214.501 322.292C198.912 313.332 162.723 290.504 141.117 260.557C139.798 258.727 137.822 257.507 135.621 257.164C133.421 256.822 131.178 257.385 129.385 258.731C127.592 260.076 126.396 262.094 126.06 264.339C125.725 266.584 126.277 268.874 127.595 270.703C148.224 299.298 179.924 321.308 198.832 332.846C198.068 333.064 197.28 333.325 196.516 333.531C150.577 345.771 84.5599 335.98 48.1739 285.555Z" fill="#FFE1C5"/>
<path d="M493.935 77.131C465.15 46.1081 425.674 27.7194 383.847 25.85C342.021 23.9806 301.121 38.7769 269.788 67.1129C269.474 67.3909 269.073 67.544 268.657 67.544C268.242 67.544 267.84 67.3909 267.527 67.1129C243.134 45.0464 212.76 31.044 180.41 26.9526C148.061 22.8613 115.256 28.8732 86.3228 44.1954C90.1005 47.1474 92.9782 51.1342 94.6205 55.6913C96.2628 60.2484 96.602 65.188 95.5986 69.9343C89.4315 99.0211 120.934 115.076 159.594 131.614C162.489 132.856 165.283 134.055 167.93 135.21C214.955 155.829 244.327 186.924 255.293 226.906H314.237C315.436 226.357 316.49 225.525 317.312 224.479L332.596 159.815C333.257 156.97 334.841 154.437 337.091 152.627C339.341 150.817 342.124 149.836 344.989 149.844C347.833 149.95 350.557 151.041 352.714 152.936C354.871 154.831 356.332 157.418 356.857 160.273L374.583 257.132L398.53 190.507C398.613 190.293 398.697 190.07 398.794 189.865C399.753 187.636 401.323 185.737 403.314 184.397C405.306 183.057 407.635 182.334 410.02 182.313H410.025C412.41 182.331 414.74 183.052 416.733 184.39C418.726 185.727 420.298 187.624 421.26 189.852L435.616 223.481C436.248 224.726 437.044 225.877 437.982 226.902H532.57C538.845 200.628 538.599 173.171 531.853 147.018C525.106 120.865 512.074 96.8429 493.935 77.1268V77.131Z" fill="#FFE1C5"/>
<path d="M420.312 230.511L410.385 207.264L384.723 278.649C384.639 278.872 384.555 279.086 384.458 279.3C383.506 281.525 381.943 283.42 379.959 284.759C377.974 286.097 375.652 286.821 373.274 286.844C372.828 286.844 372.383 286.82 371.94 286.771C369.281 286.449 366.792 285.271 364.833 283.408C362.874 281.545 361.547 279.094 361.044 276.41L344.137 184.021L333.511 228.974C332.126 233.074 329.608 236.677 326.261 239.349C322.914 242.021 318.881 243.647 314.648 244.031H258.767C261.413 265.728 260.064 287.739 254.79 308.931C253.187 315.35 251.19 321.66 248.811 327.824C261.745 342.392 268.829 361.396 268.655 381.053C268.671 384.427 268.036 387.771 266.785 390.894C265.534 394.018 263.693 396.859 261.366 399.256C259.039 401.653 256.272 403.559 253.223 404.864C250.174 406.169 246.903 406.849 243.597 406.864H243.513C236.857 406.856 230.474 404.165 225.753 399.379C221.031 394.592 218.352 388.097 218.299 381.305C218.361 375.21 216.505 369.256 213.004 364.317C210.311 365.174 207.647 365.957 204.991 366.659C189.87 370.677 174.308 372.705 158.683 372.696C140.652 372.706 122.715 370.039 105.437 364.78L255.532 516.892C259.051 520.371 263.758 522.317 268.657 522.317C273.557 522.317 278.264 520.371 281.782 516.892L488.527 307.368C506.111 289.555 519.498 267.898 527.678 244.031H436.312C426.571 244.031 420.559 231.059 420.312 230.511Z" fill="#FFE1C5"/>
</g>
<defs>
<clipPath id="clip0_1043_6878">
<rect width="537" height="548" fill="white"/>
</clipPath>
</defs>
</svg>
