<svg width="32" height="32" viewBox="0 0 32 32" fill="none" xmlns="http://www.w3.org/2000/svg">
<path d="M24.4375 7.5625V7.5816M1 8.5C1 6.51088 1.79018 4.60322 3.1967 3.1967C4.60322 1.79018 6.51088 1 8.5 1H23.5C25.4891 1 27.3968 1.79018 28.8033 3.1967C30.2098 4.60322 31 6.51088 31 8.5V23.5C31 25.4891 30.2098 27.3968 28.8033 28.8033C27.3968 30.2098 25.4891 31 23.5 31H8.5C6.51088 31 4.60322 30.2098 3.1967 28.8033C1.79018 27.3968 1 25.4891 1 23.5V8.5ZM10.375 16C10.375 17.4918 10.9676 18.9226 12.0225 19.9775C13.0774 21.0324 14.5082 21.625 16 21.625C17.4918 21.625 18.9226 21.0324 19.9775 19.9775C21.0324 18.9226 21.625 17.4918 21.625 16C21.625 14.5082 21.0324 13.0774 19.9775 12.0225C18.9226 10.9676 17.4918 10.375 16 10.375C14.5082 10.375 13.0774 10.9676 12.0225 12.0225C10.9676 13.0774 10.375 14.5082 10.375 16Z" stroke="#FE4F0B" stroke-width="2" stroke-linecap="round" stroke-linejoin="round"/>
</svg>
