<svg width="629" height="634" viewBox="0 0 629 634" fill="none" xmlns="http://www.w3.org/2000/svg">
<path d="M147.558 479.217C112.999 441.304 85.6545 392.133 82.1055 326.189V306.954C83.5018 279.099 90.5416 253.853 99.385 230.895C110.817 201.134 128.504 172.663 149.391 154.835C149.391 169.085 149.74 182.69 151.194 191.487C155.616 218.228 170.394 247.491 188.488 265.699C203.12 280.477 222.756 290.622 243.032 301.442C283.467 323.081 321.924 342.169 362.126 363.75C387.988 377.648 414.605 394.801 422.11 422.392C432.757 461.39 410.183 497.572 392.118 516.777C374.967 535.034 352.24 546.968 327.567 550.673H296.645C232.821 543.489 182.263 517.247 147.558 479.217ZM301.183 243.737C338.447 263.412 376.933 283.409 414.838 303.289C434.357 313.551 452.131 324.136 465.745 339.032C490.53 366.125 506.006 401.427 503.01 452.652C509.148 446.67 514.704 438.314 519.358 429.752C532.885 404.829 543.823 373.074 546.645 336.275C546.499 335.191 546.819 334.633 547.547 334.428V297.777C531.547 168.88 444.51 91.4719 322.099 81.532H310.288C286.376 85.5783 263.046 92.4688 249.373 108.126C239.774 119.093 232.21 138.621 231.192 151.17C226.887 205.092 265.227 224.708 301.183 243.737Z" fill="#FFE1C5"/>
</svg>
