<svg width="32" height="32" viewBox="0 0 32 32" fill="none" xmlns="http://www.w3.org/2000/svg">
<path d="M31 9.19566V15.9195C27.9768 15.6196 25.0941 14.4947 22.6667 12.6676V20.1682C22.6662 22.2036 22.0925 24.1977 21.0112 25.922C19.9298 27.6463 18.3847 29.0312 16.5528 29.9179C14.7208 30.8046 12.6762 31.1573 10.6531 30.9355C8.62998 30.7138 6.71026 29.9266 5.11384 28.6641C3.51743 27.4016 2.3089 25.715 1.62671 23.7973C0.944524 21.8797 0.816271 19.8087 1.25665 17.8215C1.69702 15.8343 2.68822 14.0114 4.11667 12.5616C5.54512 11.1118 7.35305 10.0937 9.33333 9.62402V16.8346C8.76515 17.2608 8.31532 17.8251 8.02657 18.4741C7.73781 19.123 7.61972 19.835 7.6835 20.5424C7.74729 21.2498 7.99083 21.9292 8.391 22.516C8.79117 23.1028 9.33469 23.5776 9.96994 23.8953C10.6052 24.2129 11.3111 24.3629 12.0206 24.331C12.7301 24.2991 13.4197 24.0863 14.0239 23.7129C14.628 23.3394 15.1267 22.8178 15.4726 22.1974C15.8185 21.577 16 20.8785 16 20.1682V1H22.805C23.152 3.0475 24.1273 4.93636 25.5956 6.40481C27.064 7.87326 28.9527 8.8486 31 9.19566Z" stroke="#FE4F0B" stroke-width="2" stroke-linecap="round" stroke-linejoin="round"/>
</svg>
