<svg width="35" height="30" viewBox="0 0 35 30" fill="none" xmlns="http://www.w3.org/2000/svg">
<path d="M1 8.05263C1 6.21007 1.69536 4.44298 2.9331 3.14009C4.17084 1.83721 5.84957 1.10526 7.6 1.10526H27.4C29.1504 1.10526 30.8292 1.83721 32.0669 3.14009C33.3046 4.44298 34 6.21007 34 8.05263V21.9474C34 23.7899 33.3046 25.557 32.0669 26.8599C30.8292 28.1628 29.1504 28.8947 27.4 28.8947H7.6C5.84957 28.8947 4.17084 28.1628 2.9331 26.8599C1.69536 25.557 1 23.7899 1 21.9474V8.05263Z" stroke="#FE4F0B" stroke-width="2" stroke-linecap="round" stroke-linejoin="round"/>
<path d="M14.2 9.78947L22.45 15L14.2 20.2105V9.78947Z" stroke="#FE4F0B" stroke-width="2" stroke-linecap="round" stroke-linejoin="round"/>
</svg>
