<svg width="202" height="40" viewBox="0 0 202 40" fill="none" xmlns="http://www.w3.org/2000/svg">
<mask id="mask0_596_4988" style="mask-type:luminance" maskUnits="userSpaceOnUse" x="36" y="1" width="6" height="6">
<path d="M40.2503 3.2955V2.44121C40.2503 1.96928 39.873 1.58693 39.4077 1.58693H39.1269C38.6615 1.58693 38.2843 1.96951 38.2843 2.44121V3.2955H37.4417C36.9762 3.2955 36.5991 3.67808 36.5991 4.14978V4.43446C36.5991 4.90639 36.9765 5.28874 37.4417 5.28874H38.2843V6.14303C38.2843 6.61496 38.6617 6.99731 39.1269 6.99731H39.4077C39.8732 6.99731 40.2503 6.61473 40.2503 6.14303V5.28874H41.0929C41.5584 5.28874 41.9355 4.90616 41.9355 4.43446V4.14978C41.9355 3.67785 41.5582 3.2955 41.0929 3.2955H40.2503Z" fill="white"/>
</mask>
<g mask="url(#mask0_596_4988)">
<mask id="mask1_596_4988" style="mask-type:luminance" maskUnits="userSpaceOnUse" x="-66" y="-93" width="330" height="223">
<path d="M-65.1987 129.408H263.535V-92.785H-65.1987V129.408Z" fill="white"/>
</mask>
<g mask="url(#mask1_596_4988)">
<path d="M35.2288 8.38672H43.3055V0.198042H35.2288V8.38672Z" fill="#FFE1C5"/>
</g>
</g>
<mask id="mask2_596_4988" style="mask-type:luminance" maskUnits="userSpaceOnUse" x="13" y="7" width="20" height="29">
<path d="M22.0722 7.67249L13.238 7.618L17.5763 35.5601H28.1458L32.4841 7.618L22.0722 7.67249Z" fill="white"/>
</mask>
<g mask="url(#mask2_596_4988)">
<mask id="mask3_596_4988" style="mask-type:luminance" maskUnits="userSpaceOnUse" x="-66" y="-93" width="330" height="223">
<path d="M-65.1987 129.408H263.535V-92.785H-65.1987V129.408Z" fill="white"/>
</mask>
<g mask="url(#mask3_596_4988)">
<path d="M11.8682 36.949H33.8534V6.22933H11.8682V36.949Z" fill="#FFE1C5"/>
</g>
</g>
<mask id="mask4_596_4988" style="mask-type:luminance" maskUnits="userSpaceOnUse" x="13" y="7" width="18" height="29">
<path d="M22.0722 7.67249L13.238 7.618L17.5763 35.5601H25.9372L30.2755 7.618L22.0726 7.67249H22.0722Z" fill="white"/>
</mask>
<g mask="url(#mask4_596_4988)">
<mask id="mask5_596_4988" style="mask-type:luminance" maskUnits="userSpaceOnUse" x="-66" y="-93" width="330" height="223">
<path d="M-65.1987 129.408H263.535V-92.785H-65.1987V129.408Z" fill="white"/>
</mask>
<g mask="url(#mask5_596_4988)">
<path d="M11.8682 36.949H31.645V6.22933H11.8682V36.949Z" fill="#FFE1C5"/>
</g>
</g>
<mask id="mask6_596_4988" style="mask-type:luminance" maskUnits="userSpaceOnUse" x="10" y="5" width="24" height="3">
<path d="M10.7141 7.61792H33.5093V5.04116H10.7141V7.61792Z" fill="white"/>
</mask>
<g mask="url(#mask6_596_4988)">
<path d="M9.34424 9.00684H34.8788V3.65259H9.34424V9.00684Z" fill="#FFE1C5"/>
</g>
<path d="M11.3056 7.01807H32.9173V5.64082H11.3056V7.01807ZM34.1006 8.21753H10.1226V4.44136H34.1004V8.21753" fill="#FFE1C5"/>
<mask id="mask7_596_4988" style="mask-type:luminance" maskUnits="userSpaceOnUse" x="13" y="0" width="18" height="5">
<path d="M29.0923 0.853931H14.9734L13.3171 4.71899H30.7486L29.0923 0.853931Z" fill="white"/>
</mask>
<g mask="url(#mask7_596_4988)">
<mask id="mask8_596_4988" style="mask-type:luminance" maskUnits="userSpaceOnUse" x="-66" y="-93" width="330" height="223">
<path d="M-65.1987 129.408H263.535V-92.785H-65.1987V129.408Z" fill="white"/>
</mask>
<g mask="url(#mask8_596_4988)">
<path d="M11.9473 6.10791H32.1183V-0.534799H11.9473V6.10791Z" fill="#FFE1C5"/>
</g>
</g>
<path d="M14.2191 4.11962H29.8467L28.7042 1.45355H15.3614L14.2193 4.11962H14.2191ZM31.6506 5.31885H12.4148L14.5855 0.254317H29.4801L31.6504 5.31885" fill="#FFE1C5"/>
<path d="M16.5044 34.9602H27.64L31.7916 8.22105L22.0693 8.27185L12.3533 8.22105L16.5049 34.9602H16.5044ZM28.6516 36.1594H15.4933L10.9683 7.01443L22.0724 7.07216L33.1766 7.01443L28.6516 36.1594Z" fill="#FFE1C5"/>
<mask id="mask9_596_4988" style="mask-type:luminance" maskUnits="userSpaceOnUse" x="11" y="15" width="22" height="12">
<path d="M32.7992 15.5094H11.2659L13.21 26.6221L22.0323 26.5251L30.8546 26.6221L32.7986 15.5094H32.7992Z" fill="white"/>
</mask>
<g mask="url(#mask9_596_4988)">
<mask id="mask10_596_4988" style="mask-type:luminance" maskUnits="userSpaceOnUse" x="-66" y="-93" width="330" height="223">
<path d="M-65.1987 129.408H263.535V-92.785H-65.1987V129.408Z" fill="white"/>
</mask>
<g mask="url(#mask10_596_4988)">
<path d="M9.89648 28.0105H34.1692V14.1208H9.89648V28.0105Z" fill="#FFE1C5"/>
</g>
</g>
<path d="M22.0261 25.9256L30.3602 26.0172L32.0932 16.1098H11.9718L13.7048 26.0172L22.0261 25.9256ZM31.3499 27.2273L22.0261 27.125L12.7149 27.2273L10.5605 14.9101H33.5049L31.3501 27.2273" fill="#FFE1C5"/>
<mask id="mask11_596_4988" style="mask-type:luminance" maskUnits="userSpaceOnUse" x="0" y="8" width="7" height="7">
<path d="M3.24055 14.7283C5.03011 14.7283 6.48101 13.2575 6.48101 11.4427C6.48101 9.62797 5.03036 8.15722 3.24055 8.15722C1.45074 8.15722 0 9.62843 0 11.443C0 13.2573 1.45065 14.7285 3.24055 14.7285V14.7283Z" fill="white"/>
</mask>
<g mask="url(#mask11_596_4988)">
<mask id="mask12_596_4988" style="mask-type:luminance" maskUnits="userSpaceOnUse" x="-66" y="-93" width="330" height="223">
<path d="M-65.1987 129.408H263.535V-92.7852H-65.1987V129.408Z" fill="white"/>
</mask>
<g mask="url(#mask12_596_4988)">
<path d="M3.24063 10.0898C2.50506 10.0898 1.90617 10.6971 1.90617 11.4428C1.90617 12.1886 2.5051 12.7958 3.24063 12.7958C3.97616 12.7958 4.575 12.1886 4.575 11.4428C4.575 10.6971 3.97607 10.0898 3.24063 10.0898ZM3.24063 16.6609C0.402643 16.6609 -1.90601 14.3201 -1.90601 11.4428C-1.90601 8.56549 0.402621 6.22475 3.24063 6.22475C6.07864 6.22475 8.38727 8.56549 8.38727 11.4428C8.38727 14.3197 6.07853 16.6609 3.24063 16.6609Z" fill="#FFE1C5"/>
</g>
</g>
<mask id="mask13_596_4988" style="mask-type:luminance" maskUnits="userSpaceOnUse" x="35" y="19" width="4" height="4">
<path d="M36.9797 22.8455C37.8219 22.8455 38.5046 22.1533 38.5046 21.2994C38.5046 20.4456 37.8219 19.7534 36.9797 19.7534C36.1376 19.7534 35.4551 20.4456 35.4551 21.2994C35.4551 22.1533 36.1376 22.8455 36.9797 22.8455Z" fill="white"/>
</mask>
<g mask="url(#mask13_596_4988)">
<mask id="mask14_596_4988" style="mask-type:luminance" maskUnits="userSpaceOnUse" x="-66" y="-93" width="330" height="223">
<path d="M-65.1987 129.408H263.535V-92.785H-65.1987V129.408Z" fill="white"/>
</mask>
<g mask="url(#mask14_596_4988)">
<path d="M34.0852 24.2341H39.8741V18.3645H34.0852V24.2341Z" fill="#FFE1C5"/>
</g>
</g>
<mask id="mask15_596_4988" style="mask-type:luminance" maskUnits="userSpaceOnUse" x="6" y="28" width="4" height="4">
<path d="M8.38706 31.7351C9.22921 31.7351 9.91188 31.0429 9.91188 30.1891C9.91188 29.3352 9.22921 28.643 8.38706 28.643C7.54491 28.643 6.86206 29.3352 6.86206 30.1891C6.86206 31.0429 7.5448 31.7351 8.38706 31.7351Z" fill="white"/>
</mask>
<g mask="url(#mask15_596_4988)">
<mask id="mask16_596_4988" style="mask-type:luminance" maskUnits="userSpaceOnUse" x="-66" y="-93" width="330" height="223">
<path d="M-65.199 129.408H263.535V-92.785H-65.199V129.408Z" fill="white"/>
</mask>
<g mask="url(#mask16_596_4988)">
<path d="M5.49243 33.124H11.2817V27.2543H5.49243V33.124Z" fill="#FFE1C5"/>
</g>
</g>
<mask id="mask17_596_4988" style="mask-type:luminance" maskUnits="userSpaceOnUse" x="44" y="10" width="14" height="20">
<path d="M55.1621 24.3955C54.903 24.8988 54.5463 25.337 54.0932 25.7092C53.64 26.0809 53.1107 26.3841 52.5063 26.6175C51.9015 26.8514 51.2932 27.0084 50.6815 27.0886C50.0694 27.1689 49.4757 27.162 48.9002 27.0666C48.324 26.9719 47.8344 26.7787 47.4313 26.4864L47.885 21.692C48.3024 21.5461 48.8273 21.3965 49.4609 21.2431C50.0944 21.0903 50.746 20.9804 51.4153 20.9148C52.0848 20.849 52.7179 20.8571 53.3157 20.937C53.9123 21.0171 54.3844 21.2104 54.7299 21.517C54.9166 21.692 55.0756 21.8818 55.2052 22.0861C55.3343 22.2905 55.4135 22.5022 55.4427 22.7211C55.5142 23.3341 55.4208 23.8924 55.1619 24.3957L55.1621 24.3955ZM48.5759 14.1826C48.8783 13.9928 49.242 13.8247 49.6667 13.6788C50.0911 13.533 50.5288 13.4303 50.9732 13.3724C51.4191 13.3147 51.8546 13.3066 52.2795 13.3505C52.704 13.3943 53.0788 13.5144 53.4022 13.7116C53.7261 13.9088 53.967 14.1934 54.1255 14.5652C54.2838 14.9376 54.3273 15.4084 54.2553 15.9775C54.1977 16.4301 54.0207 16.8133 53.7263 17.1269C53.4311 17.4409 53.0711 17.7034 52.6468 17.9151C52.2219 18.1271 51.7723 18.2947 51.2973 18.4185C50.822 18.5431 50.3647 18.6344 49.9257 18.6925C49.4868 18.751 49.1054 18.7877 48.7816 18.802L48.1444 18.8239L48.5761 14.1831L48.5759 14.1826ZM57.4939 21.2974C57.2639 20.7871 56.9541 20.3381 56.5656 19.9509C56.1769 19.5644 55.7157 19.2836 55.1833 19.1081C55.4133 18.9183 55.6404 18.6193 55.8638 18.2104C56.0869 17.8022 56.2773 17.3566 56.4354 16.875C56.5939 16.3931 56.7018 15.9083 56.7594 15.419C56.8168 14.9302 56.795 14.5107 56.695 14.1602C56.4497 13.2847 56.0646 12.5985 55.5395 12.1023C55.0134 11.6063 54.4024 11.2633 53.704 11.0732C53.0057 10.8839 52.2355 10.8435 51.3936 10.9532C50.551 11.0626 49.6909 11.278 48.8134 11.599C48.8134 11.5262 48.8207 11.4496 48.8351 11.3692C48.8492 11.2893 48.8565 11.2053 48.8565 11.1176C48.8565 10.8987 48.7485 10.7093 48.5326 10.5487C48.3167 10.388 48.0681 10.2933 47.788 10.264C47.5069 10.2349 47.2332 10.2963 46.967 10.4498C46.7005 10.6031 46.517 10.8846 46.4163 11.2926L46.0711 15.3862L45.7038 19.6777L45.315 23.9792L44.9265 28.0844C44.9698 28.4785 45.0775 28.7851 45.2506 29.0038C45.4232 29.2231 45.6247 29.3547 45.855 29.3979C46.085 29.4418 46.3264 29.4014 46.5782 29.2778C46.8301 29.1543 47.0497 28.9384 47.2373 28.632C47.8128 28.953 48.4607 29.1608 49.1805 29.2561C49.9002 29.3508 50.6305 29.3508 51.3724 29.2561C52.1135 29.161 52.844 28.9823 53.5639 28.7195C54.2835 28.457 54.9385 28.1285 55.5292 27.7346C56.1191 27.3404 56.6155 26.8914 57.0193 26.388C57.4219 25.8842 57.6884 25.3407 57.8179 24.7573C57.9477 24.1586 57.9833 23.5604 57.9259 22.9619C57.8683 22.3634 57.7243 21.8093 57.4941 21.2979L57.4939 21.2974Z" fill="white"/>
</mask>
<g mask="url(#mask17_596_4988)">
<mask id="mask18_596_4988" style="mask-type:luminance" maskUnits="userSpaceOnUse" x="-66" y="-93" width="330" height="223">
<path d="M-65.199 129.408H263.535V-92.785H-65.199V129.408Z" fill="white"/>
</mask>
<g mask="url(#mask18_596_4988)">
<path d="M43.5571 30.8037H59.3221V8.8682H43.5571V30.8037Z" fill="#FFE1C5"/>
</g>
</g>
<mask id="mask19_596_4988" style="mask-type:luminance" maskUnits="userSpaceOnUse" x="58" y="16" width="29" height="24">
<path d="M78.5587 32.8568C78.4794 33.3384 78.3678 33.8454 78.2239 34.3783C78.0798 34.9108 77.9108 35.3965 77.7167 35.8343C77.5223 36.2721 77.3064 36.6256 77.0691 36.8959C76.8313 37.1661 76.5756 37.2792 76.3023 37.2353C76.086 37.2058 75.9493 37.0668 75.8924 36.8193C75.8345 36.5708 75.8345 36.2642 75.8924 35.8996C75.9493 35.5348 76.0609 35.1222 76.2272 34.6625C76.3925 34.2031 76.5943 33.7466 76.8318 33.2943C77.0695 32.8418 77.3392 32.4077 77.6416 31.9921C77.944 31.5765 78.2601 31.2295 78.5912 30.9522C78.6634 31.0399 78.696 31.2586 78.6885 31.609C78.6807 31.9593 78.6379 32.3756 78.5587 32.8568ZM85.8789 23.3553C85.6846 23.1366 85.4471 23.0126 85.1661 22.9835C84.8855 22.9542 84.6008 23.1147 84.3132 23.4652C84.1258 23.8154 83.8883 24.1509 83.6004 24.4718C83.3123 24.7932 83.0135 25.0851 82.7041 25.3476C82.3946 25.6101 82.0997 25.8366 81.8186 26.0264C81.5385 26.2164 81.3186 26.355 81.1605 26.442C81.1029 25.9756 81.0703 25.4718 81.0635 24.9315C81.0557 24.3917 81.0669 23.8441 81.0958 23.2899C81.1391 22.5017 81.2288 21.7065 81.3657 20.9035C81.5023 20.1009 81.7005 19.3126 81.9594 18.5387C81.9594 18.1305 81.8656 17.7983 81.6786 17.5427C81.4914 17.2875 81.2648 17.1271 80.9986 17.0613C80.7321 16.9957 80.4589 17.0322 80.1781 17.1707C79.8973 17.3092 79.6561 17.5614 79.4546 17.9257L78.8609 19.5456C78.6377 20.1443 78.3856 20.7536 78.1053 21.3738C77.8251 21.9929 77.5114 22.5959 77.1659 23.18C76.8197 23.7642 76.4424 24.2823 76.0318 24.7344C75.6218 25.1869 75.1755 25.5411 74.6934 25.7964C74.2106 26.0518 73.6891 26.1647 73.1277 26.1359C72.8686 26.0629 72.6814 25.8657 72.5661 25.5448C72.4509 25.2238 72.3828 24.8221 72.3612 24.3407C72.3393 23.8593 72.3612 23.3301 72.4256 22.7536C72.4905 22.1773 72.5769 21.6042 72.6853 21.0351C72.7932 20.4657 72.9121 19.9259 73.0412 19.4149C73.171 18.9042 73.2931 18.4734 73.4085 18.1234C73.5811 17.7004 73.5811 17.3457 73.4085 17.0613C73.2355 16.7766 72.9982 16.587 72.6962 16.4919C72.3938 16.3972 72.0768 16.4012 71.7459 16.503C71.4147 16.605 71.1772 16.8313 71.0331 17.1818C70.7882 17.7805 70.5648 18.4517 70.3635 19.1958C70.162 19.9402 70.0001 20.7104 69.8778 21.5056C69.7548 22.3013 69.6865 23.0895 69.6721 23.8704C69.6715 23.9212 69.674 23.9697 69.6737 24.02C69.3595 24.8685 69.0607 25.5097 68.7765 25.9387C68.4091 26.4935 67.9949 26.7343 67.5347 26.6614C67.3327 26.5736 67.1999 26.3697 67.1354 26.0483C67.0701 25.7274 67.0489 25.3335 67.0701 24.8662C67.0919 24.3998 67.1461 23.8706 67.2322 23.2791C67.3188 22.688 67.4263 22.075 67.5556 21.4403L68.3549 17.7073C68.3406 17.197 68.1928 16.8068 67.912 16.5362C67.6314 16.2665 67.2391 16.1608 66.7355 16.2188C66.3901 16.3647 66.1343 16.5547 65.9688 16.7881C65.803 17.0213 65.6698 17.3208 65.5693 17.6856C65.5115 17.8754 65.4252 18.255 65.3102 18.8243C65.1947 19.393 65.0476 20.0466 64.8675 20.7834C64.6876 21.5209 64.4751 22.2904 64.2305 23.0932C63.9857 23.8958 63.7122 24.6224 63.41 25.2714C63.1076 25.9209 62.7764 26.4425 62.4171 26.8368C62.0573 27.231 61.6683 27.3917 61.2511 27.3185C61.0206 27.2746 60.8731 27.034 60.8086 26.5962C60.7437 26.1582 60.7328 25.6184 60.776 24.9761C60.8193 24.3342 60.9058 23.63 61.0352 22.8635L61.4346 20.685L61.8127 18.868L62.0502 17.8174C62.0502 17.3942 61.9561 17.055 61.7692 16.7992C61.582 16.5441 61.3554 16.3836 61.0892 16.3176C60.8227 16.252 60.5494 16.2882 60.2687 16.427C59.9879 16.566 59.7467 16.8177 59.5452 17.182C59.473 17.5761 59.3794 18.0324 59.2644 18.5503L58.9296 20.1485L58.6272 21.7578C58.5338 22.2833 58.4655 22.743 58.4222 23.1371L58.3252 24.2643C58.2892 24.7099 58.271 25.1804 58.271 25.6764C58.2708 26.171 58.307 26.6649 58.3794 27.1541C58.4511 27.6436 58.5805 28.0922 58.7679 28.5006C58.9546 28.9093 59.2174 29.2448 59.5559 29.5073C59.894 29.7705 60.3224 29.916 60.8407 29.9453C61.3729 29.9741 61.8373 29.9344 62.2333 29.8247C62.6295 29.7153 62.9894 29.5438 63.3132 29.3099C63.6366 29.0767 63.9317 28.7996 64.1984 28.4782C64.4644 28.1573 64.7274 27.8073 64.9863 27.4277C65.2309 27.9825 65.5477 28.4129 65.9364 28.7195C66.3252 29.0256 66.7358 29.2085 67.1671 29.2667C67.5989 29.3249 68.0384 29.2635 68.4845 29.0806C68.9309 28.8982 69.3335 28.5881 69.6938 28.1501C69.9306 27.8814 70.1545 27.5764 70.364 27.2388C70.4533 27.3967 70.548 27.5491 70.6546 27.6902C71.0076 28.1575 71.4862 28.4784 72.0906 28.6537C72.7383 28.8287 73.3714 28.8583 73.9908 28.7414C74.6098 28.6251 75.2001 28.4131 75.7614 28.1065C76.3228 27.7999 76.8445 27.4318 77.3271 27.0005C77.8092 26.5702 78.2301 26.1218 78.5901 25.6544C78.5755 25.9902 78.5685 26.3079 78.5685 26.6066C78.5685 26.9061 78.5616 27.2307 78.5471 27.581C77.827 28.0919 77.1472 28.7049 76.5066 29.4198C75.8657 30.1348 75.3042 30.8975 74.8221 31.7079C74.3397 32.5178 73.9617 33.3389 73.6886 34.1705C73.4154 35.0031 73.2817 35.7798 73.289 36.5025C73.2958 37.2252 73.4652 37.856 73.7964 38.3958C74.1272 38.9361 74.6672 39.3228 75.416 39.5562C76.1935 39.8047 76.8769 39.8116 77.4678 39.5782C78.0577 39.3445 78.5723 38.9578 79.0114 38.4179C79.4509 37.8777 79.8103 37.2249 80.0913 36.4586C80.3719 35.6921 80.595 34.8932 80.7608 34.0613C80.9262 33.2297 81.0305 32.4116 81.074 31.6093C81.1172 30.8063 81.1172 30.0907 81.074 29.4634C82.3117 28.9381 83.3262 28.2743 84.1187 27.4708C84.9103 26.669 85.5653 25.8223 86.084 24.9315C86.2423 24.7127 86.2958 24.4501 86.2462 24.1435C86.1954 23.8369 86.0731 23.5744 85.8789 23.3553Z" fill="white"/>
</mask>
<g mask="url(#mask19_596_4988)">
<mask id="mask20_596_4988" style="mask-type:luminance" maskUnits="userSpaceOnUse" x="-66" y="-93" width="330" height="223">
<path d="M-65.1987 129.408H263.535V-92.785H-65.1987V129.408Z" fill="white"/>
</mask>
<g mask="url(#mask20_596_4988)">
<path d="M56.9016 41.1365H87.634V14.8146H56.9016V41.1365Z" fill="#FFE1C5"/>
</g>
</g>
<mask id="mask21_596_4988" style="mask-type:luminance" maskUnits="userSpaceOnUse" x="90" y="15" width="32" height="16">
<path d="M113.119 21.9543C113.161 21.6188 113.226 21.2646 113.313 20.8922C113.399 20.5198 113.507 20.1587 113.637 19.8084C113.766 19.4582 113.917 19.1555 114.09 18.8999C114.263 18.6447 114.446 18.4623 114.64 18.3527C114.835 18.2435 115.032 18.2543 115.234 18.385C115.45 18.5166 115.583 18.7937 115.634 19.2169C115.684 19.6408 115.634 20.0929 115.483 20.5745C115.331 21.0564 115.061 21.5085 114.673 21.9321C114.284 22.3556 113.758 22.6324 113.096 22.764C113.067 22.5601 113.075 22.2898 113.118 21.9541M120.6 22.8515C120.362 22.7788 120.136 22.7714 119.92 22.8298C119.704 22.8882 119.567 23.0413 119.51 23.2897C119.394 23.7566 119.211 24.2345 118.959 24.7236C118.707 25.2126 118.398 25.676 118.031 26.1142C117.664 26.5517 117.25 26.9385 116.789 27.2742C116.328 27.6099 115.846 27.8507 115.342 27.9969C114.838 28.1576 114.421 28.1756 114.09 28.0514C113.758 27.9278 113.496 27.7159 113.302 27.4169C113.107 27.1176 112.967 26.7565 112.881 26.3331C112.794 25.9099 112.744 25.4719 112.73 25.0193C113.55 25.078 114.28 24.9286 114.921 24.5705C115.561 24.2133 116.105 23.7386 116.552 23.1478C116.998 22.5567 117.336 21.8924 117.566 21.1552C117.796 20.4187 117.926 19.6849 117.955 18.9548C117.969 18.2691 117.869 17.6889 117.653 17.2144C117.437 16.7402 117.145 16.3712 116.778 16.1084C116.412 15.8457 115.99 15.6924 115.515 15.649C115.041 15.6051 114.558 15.6711 114.069 15.8459C113.478 16.0505 112.978 16.3823 112.568 16.8422C112.157 17.3017 111.815 17.835 111.542 18.4404C111.268 19.046 111.053 19.6987 110.894 20.3997C110.736 21.1002 110.621 21.7897 110.549 22.4685C110.484 23.078 110.449 23.6603 110.437 24.2223L110.344 24.4389C110.121 24.9572 109.861 25.4645 109.566 25.9604C109.271 26.4568 108.944 26.8729 108.584 27.2084C108.224 27.5441 107.85 27.6609 107.461 27.5584C107.231 27.5007 107.105 27.2301 107.083 26.7487C107.062 26.2668 107.087 25.6686 107.159 24.9533L107.407 22.6324C107.5 21.8008 107.547 21.0056 107.547 20.2464C107.547 19.5895 107.425 18.9585 107.18 18.3527C106.935 17.7473 106.6 17.2435 106.176 16.8422C105.751 16.4405 105.258 16.1742 104.697 16.0433C104.135 15.9117 103.531 15.9995 102.883 16.3058C102.235 16.6125 101.721 17.0428 101.339 17.5977C100.957 18.1525 100.608 18.7359 100.292 19.3489C100.176 18.8819 100.007 18.448 99.7837 18.0467C99.5605 17.645 99.2872 17.2952 98.9632 16.9957C98.6393 16.6967 98.2754 16.4633 97.8728 16.2952C97.4697 16.1278 97.045 16.0436 96.5986 16.0436C96.1669 16.0436 95.7674 16.1278 95.4003 16.2952C95.0332 16.4633 94.6985 16.6785 94.396 16.941C94.0941 17.2042 93.8203 17.4993 93.5755 17.8276C93.3309 18.156 93.1146 18.481 92.9278 18.802C92.8987 18.4224 92.8664 18.0908 92.8308 17.8057C92.7944 17.5212 92.7295 17.2804 92.6361 17.0835C92.5428 16.8863 92.4095 16.7372 92.2367 16.6346C92.0641 16.533 91.8192 16.4813 91.5029 16.4813C91.3442 16.4813 91.1857 16.5141 91.0277 16.5797C90.8689 16.6455 90.7284 16.7367 90.6064 16.8535C90.4838 16.9706 90.3905 17.1126 90.3258 17.2807C90.2607 17.4483 90.2429 17.642 90.2716 17.8609C90.2859 18.0216 90.3258 18.2146 90.3905 18.4411C90.4551 18.6674 90.5164 18.9629 90.574 19.3277C90.631 19.6925 90.6783 20.1342 90.7143 20.6521C90.7503 21.1702 90.761 21.8051 90.7466 22.5569C90.7321 23.3087 90.6783 24.1879 90.5849 25.1948C90.4909 26.2019 90.3435 27.3698 90.1422 28.6974C90.1135 29.004 90.2288 29.2522 90.4879 29.4422C90.7469 29.6316 91.0418 29.741 91.3729 29.7705C91.7038 29.7996 92.0174 29.741 92.3123 29.5955C92.6074 29.4491 92.7769 29.1938 92.8201 28.829C92.8634 28.1432 92.9461 27.4136 93.0684 26.6397C93.1902 25.8679 93.3414 25.1012 93.5215 24.3412C93.7014 23.5823 93.9064 22.8598 94.1371 22.1736C94.3671 21.4879 94.6228 20.882 94.9036 20.3565C95.1844 19.831 95.4759 19.4118 95.7781 19.0977C96.0806 18.7842 96.3969 18.6272 96.7285 18.6272C97.1315 18.6272 97.4442 18.8131 97.6678 19.185C97.8903 19.5577 98.0488 20.0358 98.1429 20.6188C98.2363 21.203 98.2795 21.8419 98.2722 22.5348C98.2647 23.2281 98.2363 23.8956 98.1857 24.5377C98.1356 25.1803 98.078 25.7529 98.0131 26.2564L97.8728 27.2964C97.8728 27.6321 97.9987 27.898 98.2508 28.0952C98.5025 28.2919 98.783 28.4092 99.093 28.4452C99.4027 28.4822 99.6937 28.4233 99.9675 28.2698C100.241 28.1165 100.399 27.8579 100.443 27.4926C100.586 26.4421 100.785 25.3878 101.036 24.3294C101.288 23.2711 101.576 22.323 101.9 21.4833C102.224 20.644 102.583 19.958 102.98 19.4251C103.375 18.893 103.797 18.6263 104.243 18.6263C104.473 18.6263 104.65 18.787 104.772 19.1077C104.894 19.4286 104.955 19.8666 104.955 20.4214C104.955 20.8301 104.923 21.2499 104.858 21.6805C104.794 22.1111 104.718 22.5562 104.632 23.0159C104.545 23.4758 104.47 23.9464 104.405 24.428C104.34 24.9099 104.308 25.413 104.308 25.9385C104.308 26.3033 104.344 26.7268 104.416 27.2084C104.487 27.6898 104.624 28.1462 104.826 28.5766C105.027 29.0072 105.304 29.372 105.657 29.671C106.01 29.9703 106.459 30.1199 107.007 30.1199C107.827 30.1199 108.554 29.9412 109.188 29.5835C109.821 29.2261 110.365 28.7593 110.818 28.1827C110.842 28.1527 110.863 28.1204 110.886 28.0904C110.921 28.1758 110.951 28.2658 110.991 28.3467C111.301 28.989 111.721 29.4849 112.254 29.8359C112.786 30.1859 113.413 30.3792 114.133 30.4159C114.853 30.4521 115.637 30.3171 116.487 30.0107C117.12 29.7775 117.671 29.4852 118.138 29.1351C118.606 28.7849 119.027 28.3577 119.402 27.8544C119.776 27.3511 120.118 26.7706 120.427 26.1142C120.737 25.4569 121.05 24.7058 121.366 23.8584C121.424 23.6252 121.37 23.4174 121.205 23.235C121.039 23.0526 120.838 22.925 120.6 22.8518" fill="white"/>
</mask>
<g mask="url(#mask21_596_4988)">
<mask id="mask22_596_4988" style="mask-type:luminance" maskUnits="userSpaceOnUse" x="-66" y="-93" width="330" height="223">
<path d="M-65.199 129.408H263.535V-92.785H-65.199V129.408Z" fill="white"/>
</mask>
<g mask="url(#mask22_596_4988)">
<path d="M88.7695 31.8105H122.759V14.2478H88.7695V31.8105Z" fill="#FFE1C5"/>
</g>
</g>
<mask id="mask23_596_4988" style="mask-type:luminance" maskUnits="userSpaceOnUse" x="125" y="16" width="16" height="14">
<path d="M132.337 20.4107C132.265 20.8418 132.168 21.3163 132.045 21.8339C131.922 22.3523 131.768 22.8886 131.581 23.4432C131.394 23.998 131.163 24.4979 130.89 24.9426C130.616 25.3882 130.303 25.7415 129.95 26.0047C129.597 26.2674 129.191 26.3764 128.73 26.333C128.5 26.3039 128.324 26.1437 128.201 25.8514C128.079 25.5595 128.014 25.1871 128.007 24.7348C127.999 24.2825 128.039 23.7863 128.125 23.246C128.212 22.706 128.346 22.1749 128.525 21.6589C128.705 21.141 128.925 20.6626 129.183 20.2251C129.442 19.7873 129.741 19.4479 130.08 19.2069C130.418 18.9661 130.788 18.8532 131.192 18.8675C131.595 18.8822 132.026 19.0863 132.487 19.4805L132.336 20.4109M140.012 22.0858C139.789 21.9692 139.559 21.9438 139.322 22.0096C139.084 22.0752 138.915 22.2982 138.814 22.6773C138.757 23.086 138.627 23.5674 138.426 24.1222C138.224 24.6768 137.975 25.2028 137.681 25.6985C137.385 26.1949 137.047 26.6071 136.666 26.9354C136.284 27.2639 135.878 27.4138 135.446 27.384C135.086 27.3551 134.833 27.1693 134.69 26.8262C134.546 26.4828 134.47 26.0527 134.463 25.5344C134.456 25.0167 134.506 24.4326 134.614 23.7831C134.722 23.1336 134.852 22.4878 135.003 21.8452C135.154 21.2034 135.308 20.5864 135.467 19.9958L135.856 18.4962C135.971 18.1314 135.935 17.8213 135.748 17.5657C135.561 17.3108 135.326 17.128 135.046 17.0185C134.765 16.9088 134.481 16.88 134.193 16.9308C133.905 16.9816 133.718 17.1386 133.632 17.4011C132.782 16.6567 131.965 16.2554 131.181 16.197C130.397 16.1388 129.673 16.3141 129.011 16.7225C128.349 17.1312 127.762 17.7223 127.251 18.4957C126.74 19.2697 126.327 20.112 126.01 21.0244C125.693 21.9364 125.495 22.8669 125.416 23.8159C125.336 24.7648 125.398 25.6295 125.599 26.4103C125.801 27.1907 126.157 27.8296 126.668 28.3256C127.179 28.822 127.874 29.0702 128.752 29.0702C129.141 29.0702 129.515 28.9901 129.875 28.8294C130.235 28.6684 130.566 28.4789 130.868 28.2602C131.17 28.0409 131.437 27.8111 131.668 27.5703C131.898 27.3295 132.077 27.1293 132.207 26.9682C132.307 27.4937 132.474 27.9393 132.704 28.3039C132.934 28.6687 133.197 28.9684 133.492 29.2013C133.786 29.4345 134.096 29.6063 134.42 29.7162C134.744 29.8256 135.057 29.8801 135.359 29.8801C136.036 29.8801 136.669 29.6465 137.26 29.1794C137.85 28.7125 138.379 28.1395 138.847 27.4611C139.315 26.7823 139.7 26.067 140.002 25.3155C140.304 24.5639 140.506 23.8962 140.607 23.3121C140.707 23.0932 140.689 22.8634 140.553 22.6229C140.416 22.382 140.236 22.2033 140.013 22.086" fill="white"/>
</mask>
<g mask="url(#mask23_596_4988)">
<mask id="mask24_596_4988" style="mask-type:luminance" maskUnits="userSpaceOnUse" x="-66" y="-93" width="330" height="223">
<path d="M-65.199 129.408H263.535V-92.785H-65.199V129.408Z" fill="white"/>
</mask>
<g mask="url(#mask24_596_4988)">
<path d="M124.013 31.2683H142.041V14.7967H124.013V31.2683Z" fill="#FFE1C5"/>
</g>
</g>
<mask id="mask25_596_4988" style="mask-type:luminance" maskUnits="userSpaceOnUse" x="144" y="10" width="59" height="29">
<path d="M178.881 34.1707C178.759 34.6671 178.568 35.0866 178.309 35.429C178.05 35.7721 177.726 35.9508 177.337 35.9658C177.093 35.9801 176.905 35.8487 176.776 35.5714C176.646 35.2939 176.556 34.9365 176.506 34.499C176.455 34.061 176.434 33.5717 176.441 33.0317C176.448 32.4921 176.47 31.9592 176.506 31.4339C176.542 30.9084 176.585 30.4192 176.636 29.9671L176.754 28.9166C177.244 28.9747 177.651 29.1899 177.974 29.5624C178.299 29.9341 178.547 30.376 178.719 30.8867C178.892 31.3975 178.993 31.9488 179.022 32.5399C179.05 33.131 179.004 33.6742 178.881 34.1707M171.065 34.1707C170.942 34.6671 170.752 35.0866 170.492 35.429C170.233 35.7721 169.909 35.9508 169.521 35.9658C169.276 35.9801 169.089 35.8487 168.959 35.5714C168.83 35.2939 168.74 34.9365 168.689 34.499C168.639 34.061 168.617 33.5717 168.625 33.0317C168.631 32.4921 168.653 31.9592 168.689 31.4339C168.725 30.9084 168.768 30.4192 168.819 29.9671L168.938 28.9166C169.427 28.9747 169.834 29.1899 170.158 29.5624C170.481 29.9341 170.73 30.376 170.903 30.8867C171.076 31.3975 171.176 31.9488 171.205 32.5399C171.234 33.131 171.187 33.6742 171.065 34.1707ZM163.043 21.736C163.028 22.0857 162.996 22.3963 162.946 22.666C162.895 22.9366 162.827 23.1077 162.741 23.1808C162.582 23.0931 162.388 22.8673 162.158 22.502C161.927 22.1372 161.748 21.7246 161.618 21.2652C161.489 20.8052 161.448 20.3532 161.5 19.9075C161.55 19.4624 161.777 19.1161 162.18 18.8676C162.338 18.7799 162.474 18.8129 162.59 18.9662C162.705 19.1195 162.798 19.3421 162.871 19.6339C162.943 19.926 162.993 20.2615 163.022 20.6406C163.051 21.0204 163.058 21.385 163.044 21.7357M161.132 26.1032C160.909 26.3438 160.661 26.5516 160.388 26.7266C160.114 26.9021 159.833 27.0332 159.546 27.1207C159.257 27.2084 158.998 27.2304 158.768 27.1863C158.12 27.0554 157.624 26.7702 157.279 26.3327C156.933 25.8947 156.713 25.3805 156.62 24.7894C156.526 24.1984 156.537 23.5667 156.652 22.8955C156.767 22.2243 156.961 21.6002 157.235 21.0239C157.509 20.4474 157.84 19.9509 158.229 19.5351C158.617 19.1191 159.042 18.8602 159.503 18.7577C159.33 19.5021 159.273 20.2724 159.33 21.0673C159.388 21.8627 159.575 22.6108 159.891 23.3115C160.093 23.7354 160.334 24.1219 160.615 24.4717C160.896 24.8227 161.237 25.1217 161.641 25.3699C161.525 25.6181 161.356 25.8626 161.133 26.1034M185.026 21.9544C185.069 21.6189 185.133 21.2647 185.22 20.8923C185.307 20.5206 185.415 20.1592 185.544 19.809C185.674 19.4585 185.825 19.1555 185.997 18.9004C186.171 18.6451 186.354 18.4624 186.548 18.3532C186.743 18.2438 186.94 18.2546 187.142 18.386C187.358 18.5176 187.491 18.7947 187.542 19.2179C187.592 19.6413 187.542 20.0934 187.391 20.5755C187.24 21.0571 186.969 21.5097 186.581 21.9327C186.192 22.3566 185.667 22.6334 185.005 22.7648C184.975 22.5607 184.983 22.2908 185.026 21.9548M193.728 21.9548C193.772 21.6194 193.836 21.2652 193.923 20.8927C194.009 20.521 194.117 20.1597 194.247 19.8094C194.376 19.4589 194.527 19.156 194.7 18.9009C194.873 18.6455 195.056 18.4629 195.25 18.3537C195.445 18.2442 195.643 18.2551 195.844 18.3864C196.06 18.5181 196.193 18.7951 196.244 19.2183C196.294 19.6418 196.244 20.0939 196.092 20.576C195.941 21.0576 195.671 21.5101 195.283 21.9331C194.894 22.357 194.368 22.6339 193.706 22.7653C193.678 22.5611 193.685 22.2912 193.728 21.9553M201.815 23.236C201.649 23.0536 201.448 22.9262 201.21 22.8527C200.973 22.78 200.746 22.7729 200.53 22.831C200.314 22.8895 200.177 23.0428 200.12 23.2905C200.005 23.7578 199.821 24.2358 199.569 24.7243C199.317 25.2138 199.008 25.6772 198.641 26.115C198.274 26.5525 197.86 26.9397 197.4 27.2752C196.939 27.6111 196.457 27.8519 195.953 27.9974C195.449 28.1583 195.031 28.1766 194.7 28.0523C194.369 27.9286 194.107 27.7169 193.912 27.4174C193.718 27.1179 193.578 26.7571 193.491 26.3336C193.405 25.9104 193.355 25.4724 193.34 25.0199C194.161 25.0785 194.891 24.9294 195.532 24.5712C196.172 24.2134 196.716 23.7391 197.162 23.1481C197.608 22.557 197.947 21.8932 198.177 21.1562C198.407 20.419 198.537 19.6854 198.566 18.9558C198.579 18.2701 198.479 17.6896 198.263 17.2149C198.048 16.7409 197.756 16.3722 197.389 16.1097C197.022 15.8465 196.601 15.6936 196.125 15.6495C195.65 15.6056 195.168 15.6719 194.678 15.8465C194.088 16.0513 193.588 16.3833 193.178 16.8427C192.767 17.3029 192.425 17.8356 192.152 18.4409C191.878 19.047 191.663 19.6997 191.504 20.4005C191.346 21.101 191.231 21.7904 191.159 22.4692C191.089 23.1277 191.051 23.7581 191.043 24.3614C190.988 24.4814 190.93 24.6024 190.867 24.7239C190.615 25.2133 190.306 25.6767 189.939 26.1145C189.573 26.551 189.156 26.9407 188.697 27.2747C188.237 27.6107 187.755 27.8515 187.251 27.9969C186.746 28.1579 186.329 28.1761 185.998 28.0519C185.667 27.9281 185.404 27.7164 185.21 27.4169C185.016 27.1175 184.875 26.7566 184.789 26.3332C184.703 25.9099 184.652 25.4719 184.638 25.0194C185.458 25.0781 186.189 24.9289 186.83 24.5708C187.47 24.2129 188.014 23.7387 188.46 23.1476C188.907 22.5565 189.244 21.8927 189.475 21.1557C189.705 20.4185 189.835 19.685 189.864 18.9554C189.878 18.2696 189.777 17.6892 189.561 17.2145C189.345 16.7405 189.054 16.3717 188.687 16.1092C188.32 15.846 187.899 15.6931 187.424 15.649C186.949 15.6052 186.466 15.6714 185.977 15.846C185.386 16.0508 184.886 16.3828 184.476 16.8423C184.066 17.3024 183.724 17.8351 183.451 18.4405C183.177 19.0466 182.961 19.6993 182.803 20.4C182.644 21.1005 182.53 21.79 182.458 22.4688C182.417 22.8516 182.389 23.2226 182.369 23.587L181.95 23.9465C181.453 24.3551 180.931 24.7234 180.385 25.0524C179.837 25.381 179.269 25.6509 178.679 25.8628C178.088 26.0743 177.484 26.2022 176.865 26.2461L178.204 11.7094C178.291 11.4028 178.247 11.1331 178.074 10.8997C177.901 10.666 177.678 10.5056 177.405 10.4181C177.131 10.3303 176.84 10.3377 176.53 10.4395C176.221 10.542 175.965 10.7757 175.764 11.1403C175.663 11.6951 175.559 12.454 175.451 13.4168L175.127 16.5694L174.803 20.0939L174.512 23.6225L174.134 23.9472C173.637 24.3558 173.115 24.7241 172.568 25.0531C172.021 25.3817 171.452 25.6516 170.862 25.8635C170.272 26.075 169.667 26.2029 169.048 26.2468L170.387 11.7101C170.474 11.4035 170.431 11.1338 170.258 10.9004C170.085 10.6667 169.862 10.5062 169.589 10.4187C169.315 10.331 169.024 10.3384 168.714 10.4402C168.404 10.5427 168.149 10.7764 167.948 11.141C167.847 11.6958 167.742 12.4547 167.635 13.4175L167.311 16.5701L166.986 20.0946L166.701 23.5496C166.475 23.6558 166.229 23.7493 165.961 23.8276C165.687 23.9084 165.378 23.9555 165.033 23.97C165.09 23.7068 165.137 23.415 165.173 23.094C165.209 22.7731 165.238 22.4374 165.26 22.0869C165.281 21.7371 165.288 21.3864 165.281 21.0364C165.274 20.6854 165.256 20.3649 165.227 20.0729C165.155 19.4455 165.022 18.8508 164.828 18.2886C164.633 17.727 164.371 17.2565 164.04 16.8764C163.709 16.4971 163.295 16.2415 162.798 16.1106C162.302 15.979 161.722 16.0229 161.06 16.2415C160.081 16.1106 159.199 16.2022 158.415 16.5153C157.63 16.8293 156.95 17.2854 156.374 17.8836C155.798 18.4823 155.327 19.1863 154.96 19.9962C154.592 20.8059 154.348 21.6383 154.225 22.4916C154.173 22.8537 154.148 23.2139 154.141 23.5731C153.918 24.0361 153.674 24.4403 153.405 24.7795C153.024 25.2611 152.628 25.6553 152.218 25.9617C151.807 26.2683 151.401 26.5019 150.998 26.6624C150.595 26.8231 150.235 26.9325 149.918 26.9907C149.544 27.0637 149.184 27.0711 148.839 27.0124C148.494 26.9547 148.176 26.7862 147.889 26.5091C147.658 26.3048 147.482 25.9762 147.36 25.5239C147.238 25.0714 147.166 24.5572 147.144 23.9804C147.122 23.4037 147.144 22.8017 147.208 22.1742C147.273 21.5466 147.384 20.9519 147.543 20.3901C147.702 19.8281 147.903 19.3246 148.148 18.8792C148.392 18.4345 148.68 18.1168 149.012 17.927C149.199 17.9565 149.314 18.0692 149.357 18.2664C149.4 18.4636 149.411 18.6972 149.39 18.9671C149.368 19.2373 149.335 19.5143 149.292 19.799C149.249 20.0837 149.228 20.3208 149.228 20.5102C149.3 20.9043 149.44 21.2109 149.649 21.43C149.857 21.6489 150.092 21.7768 150.35 21.8133C150.61 21.8498 150.865 21.7879 151.117 21.627C151.369 21.467 151.574 21.2114 151.732 20.8609C151.746 20.8754 151.768 20.8826 151.797 20.8826L152.099 18.1027C152.186 17.7231 152.128 17.3876 151.926 17.096C151.725 16.804 151.459 16.6359 151.128 16.5922C150.71 15.9794 150.145 15.6548 149.432 15.6179C148.72 15.5809 147.989 15.8187 147.241 16.329C146.78 16.6652 146.374 17.1279 146.021 17.719C145.668 18.31 145.38 18.9669 145.157 19.6891C144.933 20.4118 144.776 21.1747 144.682 21.9772C144.588 22.7798 144.571 23.5606 144.628 24.3193C144.685 25.0785 144.819 25.7938 145.027 26.4648C145.236 27.1367 145.528 27.6984 145.902 28.1502C146.219 28.5444 146.578 28.833 146.981 29.0154C147.384 29.1978 147.806 29.3105 148.245 29.3548C148.684 29.3982 149.119 29.3802 149.552 29.2998C149.983 29.2202 150.394 29.107 150.782 28.9604C151.286 28.7711 151.805 28.5298 152.337 28.2378C152.869 27.9461 153.381 27.5959 153.871 27.1868C154.128 26.972 154.375 26.7374 154.615 26.486C154.725 26.7603 154.846 27.0263 154.993 27.2745C155.382 27.9311 155.907 28.464 156.57 28.8727C157.231 29.2814 158.045 29.4776 159.009 29.4638C160.046 29.4492 161.003 29.1832 161.881 28.6649C162.759 28.1472 163.479 27.3842 164.041 26.3773C164.882 26.3773 165.709 26.2369 166.522 25.9577L166.502 26.2242C166.445 26.9976 166.416 27.5229 166.416 27.8004C166.402 28.2821 166.369 28.8764 166.319 29.5845C166.269 30.2924 166.236 31.0368 166.222 31.8172C166.207 32.5981 166.236 33.3863 166.308 34.182C166.38 34.9771 166.531 35.6998 166.761 36.3495C166.991 36.9983 167.319 37.5495 167.744 38.0022C168.168 38.4548 168.726 38.7249 169.417 38.8122C170.151 38.9138 170.785 38.7829 171.318 38.4181C171.85 38.0533 172.282 37.5536 172.613 36.9187C172.944 36.2837 173.178 35.5502 173.315 34.7183C173.452 33.8867 173.491 33.0513 173.434 32.2116C173.376 31.3723 173.225 30.5806 172.98 29.8367C172.735 29.092 172.397 28.479 171.965 27.9972C172.225 27.9244 172.534 27.7861 172.894 27.5816C173.253 27.3775 173.624 27.1475 174.006 26.8919L174.285 26.6987C174.251 27.2158 174.233 27.5848 174.233 27.8007C174.219 28.2823 174.186 28.8766 174.136 29.5848C174.086 30.2927 174.053 31.037 174.039 31.8174C174.025 32.5983 174.053 33.3866 174.125 34.1822C174.197 34.9774 174.348 35.7001 174.578 36.3498C174.808 36.9986 175.136 37.5497 175.561 38.0025C175.985 38.455 176.543 38.7252 177.235 38.8124C177.969 38.914 178.602 38.7831 179.135 38.4183C179.668 38.0535 180.099 37.5539 180.431 36.9189C180.762 36.284 180.995 35.5504 181.132 34.7186C181.268 33.8906 181.308 33.0492 181.251 32.2118C181.193 31.3725 181.042 30.5808 180.798 29.8369C180.553 29.0923 180.215 28.4793 179.782 27.9974C180.042 27.9247 180.351 27.7864 180.711 27.5818C181.071 27.3777 181.441 27.1477 181.823 26.8921C182.022 26.7596 182.218 26.6225 182.415 26.4816C182.489 27.1955 182.649 27.8215 182.902 28.3481C183.212 28.9907 183.633 29.4864 184.166 29.8373C184.698 30.1871 185.325 30.3809 186.044 30.4169C186.764 30.4531 187.548 30.3185 188.398 30.0119C189.031 29.7787 189.582 29.4866 190.05 29.1364C190.517 28.7859 190.938 28.359 191.313 27.8559C191.334 27.8265 191.355 27.7949 191.376 27.7653C191.443 27.9699 191.517 28.1662 191.605 28.3481C191.914 28.9907 192.335 29.4864 192.868 29.8373C193.4 30.1871 194.027 30.3809 194.747 30.4169C195.466 30.4531 196.251 30.3185 197.101 30.0119C197.734 29.7787 198.285 29.4866 198.752 29.1364C199.22 28.7859 199.641 28.359 200.015 27.8559C200.39 27.3518 200.731 26.7716 201.041 26.115C201.351 25.4581 201.664 24.7065 201.98 23.8599C202.038 23.6267 201.984 23.4189 201.819 23.236" fill="white"/>
</mask>
<g mask="url(#mask25_596_4988)">
<mask id="mask26_596_4988" style="mask-type:luminance" maskUnits="userSpaceOnUse" x="-66" y="-93" width="330" height="223">
<path d="M-65.1987 129.408H263.535V-92.785H-65.1987V129.408Z" fill="white"/>
</mask>
<g mask="url(#mask26_596_4988)">
<path d="M143.221 40.2336H203.368V8.96748H143.221V40.2336Z" fill="#FFE1C5"/>
</g>
</g>
</svg>
