<svg width="145" height="44" viewBox="0 0 145 44" fill="none" xmlns="http://www.w3.org/2000/svg">
<path d="M141.585 19.9656C141.768 19.5446 141.927 19.1577 142.1 18.7771C142.174 18.6129 142.438 18.5323 142.596 18.5998C142.687 18.6383 142.66 18.7134 142.66 18.7771C142.66 19.517 142.66 20.2569 142.664 20.9945C142.664 21.1334 142.621 21.1795 142.481 21.1795C142.342 21.1795 142.299 21.1301 142.299 20.9923C142.304 20.4686 142.302 19.9449 142.299 19.4201C142.299 19.3394 142.317 19.2543 142.265 19.1494C142.104 19.5469 141.896 19.9004 141.772 20.292C141.742 20.3848 141.715 20.4606 141.599 20.4705C141.483 20.4814 141.426 20.4266 141.381 20.3201C141.254 20.0099 141.116 19.7037 140.978 19.3975C140.952 19.3382 140.94 19.2641 140.852 19.2295C140.804 19.3223 140.827 19.4227 140.826 19.5171C140.823 20.0019 140.821 20.4883 140.826 20.972C140.826 21.1142 140.796 21.179 140.638 21.1784C140.48 21.178 140.474 21.0906 140.474 20.972C140.477 20.2636 140.474 19.5551 140.478 18.8471C140.478 18.7543 140.418 18.5968 140.588 18.5968C140.737 18.5968 140.925 18.5001 141.022 18.7274C141.18 19.0974 141.351 19.4641 141.517 19.8313C141.535 19.8697 141.553 19.9014 141.585 19.9656Z" fill="#FFE1C5"/>
<path d="M138.965 20.0582C138.965 19.7738 138.95 19.4885 138.97 19.2055C138.985 18.9744 138.899 18.9047 138.686 18.9305C138.566 18.9469 138.443 18.9272 138.321 18.9346C138.193 18.9401 138.129 18.9126 138.128 18.76C138.128 18.5986 138.208 18.5915 138.327 18.5921C138.881 18.5953 139.434 18.5962 139.988 18.5921C140.121 18.5921 140.18 18.6305 140.178 18.7771C140.177 18.9253 140.104 18.9406 139.99 18.9373C139.846 18.9327 139.701 18.9483 139.558 18.9337C139.382 18.9172 139.322 18.9776 139.325 19.1626C139.336 19.7545 139.325 20.3469 139.331 20.9388C139.331 21.0821 139.334 21.1864 139.135 21.1826C138.937 21.1789 138.963 21.0606 138.963 20.9382C138.965 20.644 138.965 20.3507 138.965 20.0582Z" fill="#FFE1C5"/>
<path d="M106.538 25.6593C106.927 25.3151 107.28 25.0026 107.68 24.752C108.828 24.032 110.082 23.81 111.412 23.9269C112.037 23.9763 112.636 24.1285 113.211 24.3826C114.032 24.7526 114.642 25.3537 115.14 26.0937C115.223 26.2161 115.266 26.2402 115.359 26.0991C116.21 24.8084 117.428 24.1013 118.923 23.9155C120.405 23.7305 121.784 24.0253 122.927 25.0716C123.503 25.6002 123.826 26.2808 123.962 27.055C124.049 27.5715 124.091 28.0918 124.088 28.6157C124.094 31.2665 124.088 33.9176 124.096 36.5697C124.096 36.7959 124.034 36.847 123.818 36.847C122.443 36.836 121.068 36.836 119.692 36.847C119.492 36.847 119.438 36.7975 119.439 36.5922C119.447 34.5039 119.447 32.4155 119.441 30.3271C119.446 29.8254 119.395 29.3292 119.286 28.8394C118.889 27.1283 116.974 27.1178 116.121 27.9275C115.596 28.4254 115.422 29.0609 115.346 29.7472C115.28 30.3308 115.306 30.9162 115.305 31.5012C115.302 33.2045 115.303 34.9075 115.307 36.6102C115.307 36.7865 115.269 36.848 115.082 36.8464C113.684 36.8409 112.286 36.8409 110.888 36.8464C110.692 36.8464 110.651 36.7848 110.652 36.5982C110.658 34.4867 110.655 32.3752 110.656 30.2628C110.656 29.8313 110.641 29.4013 110.559 28.9763C110.407 28.1851 109.94 27.6911 109.174 27.4965C108.271 27.2687 107.379 27.6134 106.905 28.3663C106.62 28.8181 106.558 29.3374 106.555 29.8517C106.538 32.0868 106.535 34.3219 106.545 36.557C106.545 36.7964 106.481 36.848 106.255 36.8458C104.88 36.8348 103.505 36.8348 102.129 36.8458C101.937 36.8458 101.891 36.7909 101.891 36.6009C101.896 32.5087 101.896 28.4166 101.891 24.3246C101.891 24.1237 101.955 24.0857 102.137 24.0868C103.527 24.0923 104.918 24.0923 106.308 24.0868C106.504 24.0868 106.549 24.1494 106.544 24.3355C106.53 24.7571 106.538 25.1816 106.538 25.6593Z" fill="#FFE1C5"/>
<path d="M92.5585 35.5499C92.2726 35.8315 91.9968 36.1047 91.6854 36.3327C90.9764 36.8548 90.174 37.1189 89.3082 37.2188C87.9678 37.373 86.6902 37.1557 85.5089 36.502C83.6314 35.4638 82.4123 33.9031 82.0767 31.7301C81.8032 29.9492 82.0047 28.2257 83.0177 26.6937C84.106 25.0525 85.6202 24.0481 87.5711 23.7577C89.0064 23.543 90.3577 23.7741 91.6079 24.5387C91.9403 24.7412 92.2216 25.013 92.5266 25.2786C92.5831 25.1859 92.559 25.0936 92.559 25.0091C92.559 22.166 92.5576 19.3228 92.5549 16.4794C92.5549 16.245 92.6159 16.1808 92.8476 16.1824C94.2377 16.1934 95.6287 16.1934 97.0179 16.1824C97.193 16.1824 97.2505 16.2263 97.2505 16.4135C97.2456 23.1481 97.2456 29.8827 97.2505 36.617C97.2505 36.7905 97.2172 36.8542 97.0284 36.8531C95.6157 36.8421 94.2023 36.8421 92.7883 36.8531C92.6059 36.8531 92.5512 36.7949 92.5567 36.6154C92.5663 36.2597 92.5585 35.9059 92.5585 35.5499ZM89.7655 33.3302C89.9324 33.3302 90.1015 33.3466 90.267 33.3273C91.9631 33.1176 93.1079 31.3388 92.6059 29.6681C92.0191 27.718 89.7418 27.0229 88.1652 28.0546C87.0171 28.8061 86.6966 29.8739 86.8708 30.9638C87.0846 32.3068 88.3266 33.4227 89.7655 33.3302Z" fill="#FFE1C5"/>
<path d="M26.2703 23.6158C27.9412 23.6131 29.3332 23.8409 30.6116 24.5407C32.3897 25.5173 33.6449 26.9454 34.0935 28.9871C34.7774 32.1025 33.2961 35.1093 30.4402 36.4814C29.4262 36.9683 28.3516 37.1963 27.2359 37.2745C26.0459 37.3579 24.8697 37.2909 23.7166 36.9813C21.6052 36.4143 19.9853 35.1939 19.0898 33.143C18.0955 30.8669 18.3462 28.0863 20.2019 26.0678C21.3626 24.8053 22.7897 24.0922 24.4447 23.7944C25.1263 23.6753 25.8111 23.6109 26.2703 23.6158ZM26.3966 27.5003C26.1683 27.4956 25.9419 27.5113 25.7172 27.5552C24.0116 27.8939 22.714 29.8826 23.6482 31.7523C24.2783 33.0134 25.5882 33.6404 27.0371 33.3768C28.6753 33.0782 29.7312 31.4291 29.3697 29.7856C29.1134 28.6207 27.8938 27.443 26.3966 27.5003Z" fill="#FFE1C5"/>
<path d="M70.2117 25.6679C70.5322 25.2798 70.8948 24.937 71.2995 24.6403C71.9711 24.1556 72.7339 23.9291 73.5463 23.8458C74.584 23.7399 75.6071 23.78 76.5892 24.1697C78.0819 24.7649 78.9555 25.8771 79.24 27.4753C79.3175 27.9095 79.3311 28.3451 79.3311 28.7839C79.3293 31.3884 79.3307 33.9927 79.3352 36.5969C79.3352 36.8028 79.2819 36.8515 79.0827 36.8504C77.7003 36.8395 76.3173 36.8395 74.9337 36.8504C74.703 36.8504 74.6652 36.7785 74.6656 36.565C74.6735 34.423 74.6735 32.2812 74.6656 30.1395C74.6668 29.6926 74.6225 29.2502 74.5329 28.8127C74.3729 28.063 73.9056 27.5983 73.1898 27.4374C72.2456 27.2244 71.3966 27.4337 70.7332 28.1958C70.4141 28.5625 70.307 29.0166 70.2495 29.4906C70.1829 30.0352 70.2126 30.5825 70.2117 31.1282C70.2077 32.9545 70.2086 34.7806 70.2144 36.6066C70.2144 36.7971 70.1688 36.8515 69.9759 36.8509C68.5778 36.84 67.1796 36.84 65.7814 36.8509C65.5863 36.8509 65.5457 36.791 65.5461 36.6038C65.551 32.5124 65.551 28.4212 65.5461 24.3298C65.5461 24.1223 65.6022 24.0762 65.7996 24.0779C67.1896 24.0888 68.5797 24.0888 69.97 24.0779C70.1524 24.0779 70.2212 24.1163 70.2144 24.3161C70.2003 24.7476 70.2117 25.1777 70.2117 25.6679Z" fill="#FFE1C5"/>
<path d="M62.549 28.5043C62.549 29.8453 62.5773 31.1864 62.5417 32.5275C62.4961 34.2602 61.7366 35.5864 60.221 36.4341C59.3051 36.9463 58.3125 37.1911 57.2808 37.317C56.4801 37.4097 55.6774 37.4355 54.8726 37.3944C53.3999 37.3279 51.9637 37.082 50.6871 36.2628C49.4692 35.4819 48.7853 34.3614 48.6355 32.9013C48.6054 32.556 48.5931 32.2105 48.5985 31.8641C48.5985 29.3595 48.5985 26.8545 48.593 24.3499C48.593 24.1462 48.6345 24.0771 48.8511 24.0787C50.2417 24.0897 51.6322 24.0897 53.0228 24.0787C53.2284 24.0787 53.2909 24.1227 53.29 24.3444C53.2818 26.695 53.2863 29.0455 53.2836 31.3961C53.2836 31.777 53.3237 32.1476 53.4746 32.4995C53.7432 33.1261 54.2474 33.46 54.8775 33.5946C55.4465 33.7159 56.0246 33.7082 56.5827 33.5094C57.3468 33.2366 57.7481 32.6702 57.8529 31.8665C57.8985 31.5141 57.8962 31.1608 57.8962 30.807C57.8962 28.6488 57.8989 26.491 57.8912 24.3328C57.8912 24.1286 57.9418 24.077 58.1424 24.0787C59.533 24.0896 60.9236 24.0896 62.3142 24.0787C62.5002 24.0787 62.5576 24.1226 62.5563 24.3186C62.5476 25.7133 62.549 27.1091 62.549 28.5043Z" fill="#FFE1C5"/>
<path d="M136.335 31.3078H131.754C131.49 31.3078 131.468 31.3352 131.503 31.602C131.537 31.8606 131.554 32.1213 131.621 32.3757C131.835 33.1794 132.31 33.7357 133.104 33.984C133.793 34.1998 134.487 34.2426 135.187 34.0279C135.694 33.8753 136.093 33.5657 136.405 33.1424C136.496 33.0205 136.585 32.9612 136.742 32.9618C138.079 32.9673 139.417 32.9673 140.754 32.9618C140.974 32.9618 140.986 33.0282 140.924 33.2148C140.219 35.331 138.727 36.5444 136.635 37.0753C135.956 37.2466 135.263 37.3091 134.562 37.3212C133.348 37.3432 132.151 37.2334 131.01 36.7943C128.771 35.9323 127.354 34.3308 126.927 31.9192C126.602 30.0805 126.839 28.3122 127.842 26.7066C128.61 25.4774 129.69 24.6256 131.052 24.1817C132.895 23.5804 134.771 23.5342 136.631 24.0708C138.933 24.732 140.296 26.3455 140.921 28.6443C141.144 29.4605 141.175 30.2975 141.164 31.1391C141.164 31.3241 141.056 31.3055 140.94 31.3055L136.335 31.3078ZM134.223 28.7542C135.027 28.7542 135.833 28.7542 136.639 28.7542C136.734 28.7542 136.858 28.7817 136.812 28.6099C136.643 27.9708 136.363 27.4024 135.812 27.007C135.261 26.6117 134.637 26.5503 133.988 26.5761C132.803 26.62 131.908 27.389 131.654 28.5646C131.618 28.7342 131.662 28.7567 131.81 28.7561C132.613 28.752 133.418 28.7542 134.223 28.7542Z" fill="#FFE1C5"/>
<path d="M38.7965 32.3206C38.7965 30.9032 38.7928 29.4853 38.8006 28.0661C38.8006 27.8762 38.755 27.8141 38.563 27.8213C38.1527 27.8377 37.7424 27.8213 37.332 27.8268C37.193 27.8296 37.1497 27.7828 37.1497 27.6418C37.1542 26.5171 37.1542 25.3918 37.1497 24.266C37.1497 24.1073 37.2048 24.0727 37.3475 24.0755C37.7501 24.0865 38.1536 24.0645 38.5553 24.0865C38.7664 24.0974 38.8056 24.0217 38.8015 23.8263C38.7887 23.2639 38.7828 22.7011 38.8015 22.1393C38.8375 20.9665 39.0322 19.8233 39.6846 18.8291C40.5532 17.5061 41.7737 16.6663 43.3051 16.3149C44.3784 16.0684 45.4357 16.1178 46.4693 16.5361C46.664 16.6146 46.726 16.7128 46.7237 16.9242C46.7123 18.041 46.7187 19.1586 46.7187 20.2759C46.7187 20.5971 46.7187 20.5998 46.4451 20.461C45.9573 20.2112 45.4498 20.0613 44.895 20.0931C44.1286 20.1371 43.6079 20.6606 43.5368 21.4343C43.462 22.2491 43.4994 23.0648 43.4802 23.8796C43.4761 24.0454 43.5318 24.0865 43.6877 24.0854C44.6223 24.08 45.557 24.0855 46.4907 24.08C46.6653 24.08 46.726 24.1184 46.7246 24.3111C46.7161 25.3972 46.7161 26.4837 46.7246 27.5704C46.7246 27.768 46.679 27.8377 46.4716 27.835C45.5752 27.824 44.6789 27.8295 43.7816 27.8308C43.4469 27.8308 43.4839 27.7923 43.4839 28.1459C43.4839 30.9433 43.4839 33.7404 43.4839 36.5369C43.4839 36.8503 43.4839 36.8503 43.1752 36.8503C41.7928 36.8503 40.41 36.8471 39.0263 36.8545C38.848 36.8545 38.7951 36.8106 38.7983 36.6234C38.7997 35.1903 38.7965 33.7542 38.7965 32.3206Z" fill="#FFE1C5"/>
<path d="M143.7 4.40089C142.81 3.31461 140.711 3.04685 139.412 3.66602C139.139 3.79668 138.853 3.90211 138.608 4.08217L130.815 9.81643C130.26 10.3078 129.758 10.8657 129.679 11.5907C129.607 12.2521 129.679 12.7991 130.249 13.3897C131.54 14.7224 133.817 14.7308 134.903 14.0593C135.901 13.4447 142.491 8.50489 143.566 7.69979L143.845 7.4165C144.164 6.97129 144.716 5.63978 143.7 4.40089Z" fill="#FFE1C5"/>
<path d="M110.919 13.1868C111.491 12.5962 111.562 12.0491 111.49 11.3878C111.411 10.6628 110.908 10.1046 110.353 9.61353L102.561 3.87926C102.315 3.69865 102.03 3.59322 101.756 3.46312C100.457 2.84394 98.3584 3.11181 97.4703 4.19798C96.4549 5.43687 97.0071 6.7677 97.328 7.21208L97.6071 7.49537C98.6776 8.30185 105.268 13.2416 106.266 13.8562C107.351 14.5263 109.629 14.5195 110.919 13.1868Z" fill="#FFE1C5"/>
<path d="M120.641 11.6879C122.304 11.6879 123.699 10.9199 124.095 9.49371C124.146 9.29663 124.172 9.09625 124.172 8.89253L124.209 3.75106C124.209 3.70715 124.212 3.66435 124.212 3.62098C124.212 1.6445 122.642 0.726074 120.669 0.726074C118.709 0.726074 117.115 1.79292 117.099 3.7509L117.096 8.93391C117.093 9.13648 117.112 9.33686 117.155 9.53509C117.493 11.0182 118.924 11.6879 120.641 11.6879Z" fill="#FFE1C5"/>
<path d="M130.925 15.5544C128.281 14.2198 124.786 13.3809 120.222 13.3809C112.575 13.3809 107.447 15.8286 104.842 19.3862H104.882L104.871 19.4026L135.646 19.3998C134.524 17.9256 132.982 16.5898 130.925 15.5544Z" fill="#FFE1C5"/>
<path d="M11.2419 35.395C11.014 35.586 10.8284 35.7485 10.636 35.9039C9.80164 36.5841 8.8483 36.9486 7.78143 37.0442C6.2609 37.1831 4.83157 36.9136 3.5308 36.0847C1.96195 35.0877 1.08429 33.6208 0.814381 31.7775C0.586415 30.2339 0.736389 28.7254 1.45952 27.3325C2.49539 25.3394 4.11804 24.1329 6.33796 23.8009C7.50149 23.6263 8.63583 23.7273 9.71957 24.2247C10.2042 24.447 10.6114 24.7797 10.9811 25.1598C11.0527 25.2339 11.1138 25.3185 11.1799 25.3986L11.2488 25.3546C11.2488 25.0115 11.2563 24.668 11.2451 24.3253C11.2397 24.1519 11.2798 24.0843 11.469 24.0854C12.8672 24.0964 14.2653 24.0964 15.6635 24.0854C15.8199 24.0854 15.8714 24.1238 15.8714 24.2913C15.866 28.468 15.8779 32.6448 15.8552 36.8234C15.8497 37.7909 15.7384 38.7597 15.288 39.6466C14.6214 40.9605 13.5805 41.871 12.2789 42.4893C11.2635 42.9724 10.1816 43.1746 9.06593 43.2453C7.68082 43.3332 6.31851 43.2288 5.00817 42.7617C3.34494 42.1716 2.03916 41.1353 1.20527 39.5352C1.0521 39.241 0.96821 38.922 0.904832 38.5956C0.871817 38.427 0.898335 38.3738 1.08403 38.3749C2.24619 38.3859 3.40927 38.3795 4.57097 38.3795C5.0117 38.3795 5.45244 38.3795 5.89316 38.3795C5.98756 38.3795 6.06598 38.3795 6.10879 38.497C6.38828 39.2563 6.986 39.5985 7.72961 39.6938C8.46229 39.786 9.18585 39.7268 9.85242 39.353C10.7004 38.8765 11.1204 38.1246 11.2079 37.1637C11.2604 36.5907 11.249 36.017 11.2419 35.395ZM8.48629 33.3764C10.072 33.4204 11.469 32.1038 11.4699 30.4242C11.4699 28.796 10.2156 27.4294 8.49814 27.429C6.67853 27.429 5.54601 28.9615 5.5378 30.4103C5.5286 31.9461 6.83947 33.4028 8.48629 33.3764Z" fill="#FFE1C5"/>
</svg>
