<svg width="286" height="117" viewBox="0 0 286 117" fill="none" xmlns="http://www.w3.org/2000/svg">
<path d="M272.322 44.5219H277.862V65.6989H272.322V44.5219ZM286 49.0811C284.409 49.0811 283.032 49.3936 281.867 50.0185C280.702 50.6151 279.765 51.3536 279.055 52.2342C278.344 53.1148 277.847 53.967 277.563 54.7908L277.521 52.4473C277.549 52.1064 277.663 51.6093 277.862 50.956C278.06 50.2742 278.359 49.5498 278.756 48.7829C279.154 47.9875 279.68 47.2347 280.333 46.5246C280.986 45.786 281.782 45.1894 282.719 44.7349C283.656 44.2804 284.75 44.0532 286 44.0532V49.0811Z" fill="#171717"/>
<path d="M254.805 66.2102C252.135 66.2102 249.777 65.7841 247.732 64.9319C245.715 64.0797 244.139 62.844 243.002 61.2249C241.866 59.5773 241.298 57.5604 241.298 55.1743C241.298 52.7882 241.866 50.7713 243.002 49.1237C244.139 47.4478 245.715 46.1837 247.732 45.3315C249.777 44.4793 252.135 44.0532 254.805 44.0532C257.476 44.0532 259.805 44.4793 261.793 45.3315C263.81 46.1837 265.387 47.4478 266.523 49.1237C267.659 50.7713 268.227 52.7882 268.227 55.1743C268.227 57.5604 267.659 59.5773 266.523 61.2249C265.387 62.844 263.81 64.0797 261.793 64.9319C259.805 65.7841 257.476 66.2102 254.805 66.2102ZM254.805 61.9492C256.282 61.9492 257.603 61.6936 258.768 61.1823C259.961 60.6425 260.899 59.8756 261.58 58.8813C262.262 57.8587 262.603 56.623 262.603 55.1743C262.603 53.7256 262.262 52.4899 261.58 51.4673C260.899 50.4162 259.975 49.6209 258.811 49.0811C257.646 48.5414 256.311 48.2715 254.805 48.2715C253.328 48.2715 251.993 48.5414 250.8 49.0811C249.607 49.6209 248.655 50.402 247.945 51.4247C247.263 52.4473 246.923 53.6972 246.923 55.1743C246.923 56.623 247.263 57.8587 247.945 58.8813C248.627 59.8756 249.564 60.6425 250.757 61.1823C251.951 61.6936 253.3 61.9492 254.805 61.9492Z" fill="#171717"/>
<path d="M224.804 66.2102C222.134 66.2102 219.776 65.7841 217.731 64.9319C215.714 64.0797 214.137 62.844 213.001 61.2249C211.865 59.5773 211.297 57.5604 211.297 55.1743C211.297 52.7882 211.865 50.7713 213.001 49.1237C214.137 47.4478 215.714 46.1837 217.731 45.3315C219.776 44.4793 222.134 44.0532 224.804 44.0532C227.474 44.0532 229.803 44.4793 231.792 45.3315C233.809 46.1837 235.385 47.4478 236.522 49.1237C237.658 50.7713 238.226 52.7882 238.226 55.1743C238.226 57.5604 237.658 59.5773 236.522 61.2249C235.385 62.844 233.809 64.0797 231.792 64.9319C229.803 65.7841 227.474 66.2102 224.804 66.2102ZM224.804 61.9492C226.281 61.9492 227.602 61.6936 228.767 61.1823C229.96 60.6425 230.897 59.8756 231.579 58.8813C232.261 57.8587 232.601 56.623 232.601 55.1743C232.601 53.7256 232.261 52.4899 231.579 51.4673C230.897 50.4162 229.974 49.6209 228.809 49.0811C227.645 48.5414 226.309 48.2715 224.804 48.2715C223.327 48.2715 221.992 48.5414 220.799 49.0811C219.606 49.6209 218.654 50.402 217.944 51.4247C217.262 52.4473 216.921 53.6972 216.921 55.1743C216.921 56.623 217.262 57.8587 217.944 58.8813C218.625 59.8756 219.563 60.6425 220.756 61.1823C221.949 61.6936 223.298 61.9492 224.804 61.9492Z" fill="#171717"/>
<path d="M190.882 66.1676C188.751 66.1676 186.819 65.7131 185.087 64.8041C183.382 63.8667 182.033 62.5742 181.039 60.9266C180.045 59.2507 179.547 57.319 179.547 55.1317C179.547 52.8876 180.03 50.9418 180.996 49.2942C181.99 47.6466 183.34 46.3683 185.044 45.4593C186.748 44.5219 188.694 44.0532 190.882 44.0532C192.785 44.0532 194.404 44.3373 195.739 44.9054C197.074 45.4735 198.154 46.2689 198.977 47.2916C199.801 48.2858 200.398 49.4504 200.767 50.7855C201.165 52.1206 201.364 53.5694 201.364 55.1317C201.364 56.3816 201.165 57.6599 200.767 58.9666C200.369 60.2449 199.759 61.438 198.935 62.5458C198.111 63.6253 197.032 64.5058 195.696 65.1876C194.361 65.8409 192.756 66.1676 190.882 66.1676ZM192.671 61.9067C194.347 61.9067 195.796 61.6226 197.017 61.0545C198.239 60.4863 199.176 59.691 199.83 58.6683C200.483 57.6457 200.81 56.4668 200.81 55.1317C200.81 53.683 200.469 52.4615 199.787 51.4673C199.134 50.4447 198.196 49.6635 196.975 49.1238C195.782 48.584 194.347 48.3142 192.671 48.3142C190.313 48.3142 188.481 48.9391 187.175 50.189C185.868 51.4389 185.215 53.0865 185.215 55.1317C185.215 56.4952 185.527 57.6883 186.152 58.7109C186.777 59.7052 187.643 60.4863 188.751 61.0545C189.887 61.6226 191.194 61.9067 192.671 61.9067ZM200.81 36H206.349V65.6989H201.193C201.108 65.0456 201.023 64.2076 200.937 63.1849C200.852 62.1339 200.81 61.1539 200.81 60.2449V36Z" fill="#171717"/>
<path d="M160.895 44.5219H177.342V48.8255H160.895V44.5219ZM166.349 38.727H171.888V65.6989H166.349V38.727Z" fill="#171717"/>
<path d="M157.343 65.6989H151.804V44.5219H157.343V65.6989ZM152.102 55.5152L152.145 56.9639C152.088 57.3616 151.946 57.944 151.718 58.7109C151.491 59.4495 151.136 60.2449 150.653 61.0971C150.199 61.9493 149.602 62.7731 148.864 63.5684C148.125 64.3354 147.216 64.9746 146.137 65.4859C145.057 65.9688 143.779 66.2102 142.302 66.2102C141.137 66.2102 139.987 66.0682 138.85 65.7841C137.742 65.5001 136.734 65.0314 135.825 64.378C134.916 63.6963 134.192 62.7873 133.652 61.651C133.112 60.5147 132.842 59.0802 132.842 57.3474V44.5219H138.382V56.41C138.382 57.7735 138.595 58.853 139.021 59.6483C139.475 60.4153 140.129 60.955 140.981 61.2675C141.833 61.58 142.841 61.7362 144.006 61.7362C145.54 61.7362 146.861 61.4095 147.969 60.7562C149.077 60.0744 149.971 59.2507 150.653 58.2848C151.363 57.319 151.846 56.3958 152.102 55.5152Z" fill="#171717"/>
<path d="M110.607 66.2528C106.943 66.2528 103.804 65.6847 101.191 64.5484C98.6057 63.3838 96.6172 61.7362 95.2253 59.6057C93.8618 57.4752 93.1801 54.9187 93.1801 51.936C93.1801 48.9249 93.8618 46.3541 95.2253 44.2236C96.6172 42.0932 98.6057 40.4598 101.191 39.3235C103.804 38.1589 106.943 37.5765 110.607 37.5765C114.3 37.5765 117.439 38.1589 120.024 39.3235C122.609 40.4598 124.583 42.0932 125.947 44.2236C127.339 46.3541 128.035 48.9249 128.035 51.936C128.035 54.9187 127.339 57.4752 125.947 59.6057C124.583 61.7362 122.609 63.3838 120.024 64.5484C117.439 65.6847 114.3 66.2528 110.607 66.2528ZM110.607 61.3527C112.88 61.3527 114.868 61.0118 116.573 60.3301C118.306 59.6483 119.655 58.6115 120.621 57.2196C121.615 55.8277 122.112 54.0665 122.112 51.936C122.112 49.8055 121.615 48.0443 120.621 46.6524C119.655 45.2605 118.306 44.2236 116.573 43.5419C114.868 42.8317 112.88 42.4766 110.607 42.4766C108.363 42.4766 106.361 42.8317 104.599 43.5419C102.838 44.2236 101.461 45.2605 100.466 46.6524C99.4721 48.0443 98.975 49.8055 98.975 51.936C98.975 54.0665 99.4721 55.8277 100.466 57.2196C101.461 58.6115 102.838 59.6483 104.599 60.3301C106.361 61.0118 108.363 61.3527 110.607 61.3527Z" fill="#171717"/>
<path d="M230.462 79.3198H236.001V100.497H230.462V79.3198ZM244.139 83.879C242.549 83.879 241.171 84.1915 240.006 84.8165C238.842 85.413 237.904 86.1516 237.194 87.0322C236.484 87.9128 235.987 88.7649 235.703 89.5887L235.66 87.2452C235.688 86.9043 235.802 86.4072 236.001 85.7539C236.2 85.0721 236.498 84.3477 236.896 83.5808C237.293 82.7854 237.819 82.0326 238.472 81.3225C239.126 80.5839 239.921 79.9874 240.858 79.5329C241.796 79.0784 242.889 78.8511 244.139 78.8511V83.879Z" fill="#171717"/>
<path d="M220.886 93.4662H226.255C226.027 94.9149 225.417 96.2074 224.422 97.3437C223.457 98.4799 222.136 99.3747 220.46 100.028C218.784 100.681 216.738 101.008 214.324 101.008C211.625 101.008 209.239 100.582 207.165 99.7298C205.092 98.8492 203.473 97.5851 202.308 95.9376C201.143 94.29 200.561 92.3015 200.561 89.9722C200.561 87.6429 201.129 85.6544 202.265 84.0069C203.402 82.3309 204.978 81.0526 206.995 80.172C209.04 79.2914 211.426 78.8511 214.153 78.8511C216.937 78.8511 219.252 79.2914 221.099 80.172C222.945 81.0526 224.309 82.3877 225.189 84.1773C226.098 85.9385 226.482 88.1968 226.34 90.9522H206.143C206.285 92.0317 206.683 93.0117 207.336 93.8923C208.018 94.7729 208.927 95.4689 210.063 95.9802C211.228 96.4915 212.605 96.7472 214.196 96.7472C215.957 96.7472 217.42 96.4489 218.585 95.8524C219.778 95.2274 220.545 94.432 220.886 93.4662ZM213.898 83.0695C211.853 83.0695 210.191 83.524 208.912 84.433C207.634 85.3136 206.81 86.4072 206.441 87.7139H220.843C220.701 86.2936 220.019 85.1715 218.798 84.3477C217.605 83.4956 215.971 83.0695 213.898 83.0695Z" fill="#171717"/>
<path d="M183.939 97.2585C181.638 97.2585 179.607 96.9176 177.845 96.2358C176.113 95.5257 174.763 94.4888 173.797 93.1253C172.832 91.7618 172.349 90.1143 172.349 88.1826C172.349 86.2794 172.817 84.6318 173.755 83.2399C174.692 81.848 176.027 80.7685 177.76 80.0016C179.521 79.2346 181.581 78.8511 183.939 78.8511C184.592 78.8511 185.217 78.8937 185.813 78.9789C186.438 79.0642 187.049 79.1778 187.646 79.3198L198.341 79.3624V83.5382C196.892 83.5666 195.415 83.3961 193.909 83.0268C192.432 82.6292 191.125 82.2031 189.989 81.7486L189.861 81.4503C190.827 81.9048 191.736 82.4729 192.588 83.1547C193.441 83.808 194.122 84.575 194.634 85.4556C195.173 86.3078 195.443 87.302 195.443 88.4383C195.443 90.2847 194.974 91.8755 194.037 93.2106C193.1 94.5172 191.765 95.5257 190.032 96.2358C188.327 96.9176 186.296 97.2585 183.939 97.2585ZM191.054 109.232V108.209C191.054 106.902 190.628 105.993 189.776 105.482C188.952 104.971 187.816 104.715 186.367 104.715H179.763C178.485 104.715 177.405 104.616 176.524 104.417C175.672 104.218 174.991 103.934 174.479 103.565C173.968 103.195 173.599 102.755 173.371 102.244C173.144 101.761 173.031 101.235 173.031 100.667C173.031 99.531 173.4 98.6788 174.138 98.1107C174.877 97.5141 175.871 97.1164 177.121 96.9176C178.371 96.7187 179.749 96.6761 181.254 96.7898L183.939 97.2585C182.149 97.3153 180.814 97.4715 179.933 97.7272C179.081 97.9544 178.655 98.4231 178.655 99.1333C178.655 99.5594 178.825 99.9003 179.166 100.156C179.507 100.383 179.99 100.497 180.615 100.497H187.56C189.464 100.497 191.083 100.696 192.418 101.093C193.781 101.519 194.818 102.215 195.528 103.181C196.239 104.175 196.594 105.525 196.594 107.229V109.232H191.054ZM183.939 93.2532C185.16 93.2532 186.225 93.0543 187.134 92.6566C188.072 92.2589 188.796 91.6908 189.307 90.9522C189.819 90.1853 190.074 89.2763 190.074 88.2252C190.074 87.1458 189.819 86.2226 189.307 85.4556C188.796 84.6886 188.086 84.1063 187.177 83.7086C186.268 83.2825 185.188 83.0695 183.939 83.0695C182.717 83.0695 181.638 83.2825 180.7 83.7086C179.763 84.1063 179.038 84.6886 178.527 85.4556C178.016 86.2226 177.76 87.1458 177.76 88.2252C177.76 89.2763 178.016 90.1853 178.527 90.9522C179.038 91.6908 179.749 92.2589 180.658 92.6566C181.595 93.0543 182.689 93.2532 183.939 93.2532Z" fill="#171717"/>
<path d="M143.828 79.3198H149.367V100.497H143.828V79.3198ZM159.21 78.8511C160.516 78.8511 161.724 79.0215 162.832 79.3624C163.939 79.7033 164.905 80.2288 165.729 80.939C166.553 81.6491 167.192 82.5581 167.646 83.666C168.101 84.7454 168.328 86.0379 168.328 87.5435V100.497H162.789V88.5235C162.789 86.7339 162.349 85.4272 161.468 84.6034C160.616 83.7512 159.21 83.3251 157.25 83.3251C155.773 83.3251 154.437 83.6092 153.244 84.1773C152.051 84.7454 151.085 85.4698 150.347 86.3504C149.608 87.2026 149.182 88.0974 149.069 89.0348L149.026 86.8617C149.168 85.8675 149.495 84.9017 150.006 83.9643C150.517 83.0269 151.199 82.1747 152.051 81.4077C152.932 80.6123 153.969 79.9874 155.162 79.5329C156.355 79.0784 157.704 78.8511 159.21 78.8511Z" fill="#171717"/>
<path d="M138.775 70.0309V74.8884H132.341V70.0309H138.775ZM132.767 79.3198H138.306V100.497H132.767V79.3198Z" fill="#171717"/>
<path d="M110.053 101.051C107.497 101.051 105.182 100.752 103.108 100.156C101.063 99.5594 99.2874 98.6646 97.7819 97.4715C96.3048 96.2785 95.1685 94.8013 94.3731 93.0401C93.5777 91.2789 93.1801 89.2479 93.1801 86.9469C93.1801 84.6176 93.5919 82.5582 94.4157 80.7685C95.2679 78.9505 96.461 77.4166 97.9949 76.1667C99.5573 74.9168 101.404 73.9794 103.534 73.3545C105.693 72.7011 108.079 72.3745 110.693 72.3745C113.789 72.3745 116.459 72.8148 118.703 73.6954C120.947 74.5475 122.709 75.7548 123.987 77.3172C125.294 78.8795 126.032 80.7401 126.203 82.899H120.748C120.379 81.7628 119.768 80.7828 118.916 79.959C118.092 79.1068 116.999 78.4534 115.635 77.9989C114.272 77.516 112.624 77.2746 110.693 77.2746C108.221 77.2746 106.105 77.6723 104.344 78.4676C102.611 79.263 101.29 80.3851 100.381 81.8338C99.4721 83.2825 99.0176 84.9869 99.0176 86.9469C99.0176 88.8502 99.4153 90.4978 100.211 91.8897C101.006 93.2532 102.227 94.3042 103.875 95.0428C105.551 95.7813 107.682 96.1506 110.267 96.1506C112.255 96.1506 114.002 95.895 115.508 95.3837C117.041 94.8439 118.32 94.1338 119.342 93.2532C120.365 92.3442 121.089 91.3357 121.515 90.2279L123.731 89.4183C123.362 93.0827 121.97 95.9376 119.555 97.9828C117.169 100.028 114.002 101.051 110.053 101.051ZM122.282 100.497C122.282 99.6162 122.339 98.6078 122.453 97.4715C122.567 96.3069 122.709 95.1422 122.879 93.9775C123.049 92.7845 123.206 91.6908 123.348 90.6966H110.735V87.0748H127.183V100.497H122.282Z" fill="#171717"/>
<path d="M17.827 20.7384C-6.8573 37.0161 -0.811496 58.1067 6.00007 67.4976C11.3926 74.9322 21.2325 80.4102 39.1989 80.4102C55.5174 80.4102 66.752 74.9322 71.4213 67.4976C82.5526 49.7742 72.1168 30.5207 58.0561 20.7384C59.6184 30.325 58.0561 37.3683 49.0729 43.8246C59.0325 22.1079 46.3389 6.26065 32.8641 0C36.184 6.65194 34.9026 16.2386 28.2628 22.1079C21.6231 27.9773 17.827 33.2597 17.827 45.9767C15.2883 43.042 11.1872 35.6075 17.827 20.7384Z" fill="#FE4F0B"/>
<path fill-rule="evenodd" clip-rule="evenodd" d="M19.3049 92.3406C16.0025 92.3405 12.5513 93.7734 9.45978 96.923L5.66376 93.056C9.61806 89.0274 14.3873 86.8716 19.3051 86.8718C24.2229 86.8719 28.9919 89.028 32.9458 93.056L29.1499 96.923C26.0586 93.7738 22.6074 92.3407 19.3049 92.3406Z" fill="#171717"/>
<path fill-rule="evenodd" clip-rule="evenodd" d="M56.6383 92.3406C53.3359 92.3405 49.8847 93.7733 46.7932 96.923L42.9971 93.056C46.9514 89.0274 51.7207 86.8716 56.6385 86.8717C61.5562 86.8719 66.3252 89.0279 70.2792 93.0559L66.4833 96.923C63.3919 93.7738 59.9408 92.3407 56.6383 92.3406Z" fill="#171717"/>
<path fill-rule="evenodd" clip-rule="evenodd" d="M38.3303 106.531C41.7196 106.531 45.2616 105.098 48.4345 101.949L52.3304 105.816C48.2721 109.844 43.3773 112 38.3301 112C33.2829 112 28.3884 109.844 24.3305 105.816L28.2263 101.949C31.3989 105.098 34.9409 106.531 38.3303 106.531Z" fill="#171717"/>
</svg>
