<svg width="77" height="112" viewBox="0 0 77 112" fill="none" xmlns="http://www.w3.org/2000/svg">
<path d="M17.827 20.7384C-6.8573 37.0161 -0.811496 58.1067 6.00007 67.4976C11.3926 74.9322 21.2325 80.4102 39.1989 80.4102C55.5174 80.4102 66.752 74.9322 71.4213 67.4976C82.5526 49.7742 72.1168 30.5207 58.0561 20.7384C59.6184 30.325 58.0561 37.3683 49.0729 43.8246C59.0325 22.1079 46.3389 6.26065 32.8641 0C36.184 6.65194 34.9026 16.2386 28.2628 22.1079C21.6231 27.9773 17.827 33.2597 17.827 45.9767C15.2883 43.042 11.1872 35.6075 17.827 20.7384Z" fill="#FE4F0B"/>
<path fill-rule="evenodd" clip-rule="evenodd" d="M19.3049 92.3406C16.0025 92.3405 12.5513 93.7734 9.45978 96.923L5.66376 93.056C9.61806 89.0274 14.3873 86.8716 19.3051 86.8718C24.2229 86.8719 28.9919 89.028 32.9458 93.056L29.1499 96.923C26.0586 93.7738 22.6074 92.3407 19.3049 92.3406Z" fill="#171717"/>
<path fill-rule="evenodd" clip-rule="evenodd" d="M56.6383 92.3406C53.3359 92.3405 49.8847 93.7733 46.7932 96.923L42.9971 93.056C46.9514 89.0274 51.7207 86.8716 56.6385 86.8717C61.5562 86.8719 66.3252 89.0279 70.2792 93.0559L66.4833 96.923C63.3919 93.7738 59.9408 92.3407 56.6383 92.3406Z" fill="#171717"/>
<path fill-rule="evenodd" clip-rule="evenodd" d="M38.3303 106.531C41.7196 106.531 45.2616 105.098 48.4345 101.949L52.3304 105.816C48.2721 109.844 43.3773 112 38.3301 112C33.2829 112 28.3884 109.844 24.3305 105.816L28.2263 101.949C31.3989 105.098 34.9409 106.531 38.3303 106.531Z" fill="#171717"/>
</svg>
