<?xml version="1.0" standalone="no"?>
<!DOCTYPE svg PUBLIC "-//W3C//DTD SVG 20010904//EN"
 "http://www.w3.org/TR/2001/REC-SVG-20010904/DTD/svg10.dtd">
<svg version="1.0" xmlns="http://www.w3.org/2000/svg"
 width="1001.000000pt" height="1001.000000pt" viewBox="0 0 1001.000000 1001.000000"
 preserveAspectRatio="xMidYMid meet">
<metadata>
Created by potrace 1.14, written by Peter Selinger 2001-2017
</metadata>
<g transform="translate(0.000000,1001.000000) scale(0.100000,-0.100000)"
fill="#000000" stroke="none">
<path d="M4689 9862 c31 -61 78 -208 102 -317 30 -136 32 -440 5 -590 -34
-187 -108 -386 -207 -556 -74 -127 -213 -293 -325 -387 -46 -39 -218 -206
-290 -283 -52 -56 -156 -184 -209 -261 -149 -211 -271 -520 -320 -813 -10 -60
-13 -84 -20 -141 -4 -33 -8 -70 -11 -83 -3 -24 -14 -199 -19 -336 -2 -38 -4
-74 -4 -78 -1 -12 -41 38 -92 118 -72 112 -147 294 -164 399 -3 17 -8 39 -11
48 -20 66 -28 165 -28 338 1 210 13 306 79 600 23 103 135 421 196 557 l29 65
-38 -23 c-31 -19 -133 -89 -167 -116 -6 -4 -37 -28 -70 -52 -33 -25 -62 -47
-65 -51 -3 -3 -30 -25 -60 -49 -84 -65 -195 -166 -295 -266 -449 -451 -707
-937 -799 -1505 -27 -163 -27 -550 -1 -700 48 -271 91 -430 175 -639 132 -332
303 -595 545 -837 230 -231 470 -388 803 -528 214 -90 522 -179 732 -212 19
-3 42 -7 50 -9 8 -2 33 -7 55 -10 23 -3 51 -7 64 -10 13 -2 49 -7 80 -11 31
-3 64 -8 74 -10 10 -2 53 -6 95 -9 42 -4 91 -9 107 -11 180 -21 826 -21 1015
0 19 3 62 7 95 11 75 7 144 16 170 21 11 2 43 6 70 9 28 3 57 8 65 10 8 2 31
7 50 10 71 11 104 18 355 79 162 39 447 147 620 233 87 44 255 142 273 160 8
7 23 18 35 25 12 6 49 32 82 57 251 194 412 395 568 706 75 151 167 401 191
521 3 10 9 39 15 64 13 57 19 94 27 150 3 25 8 53 10 63 25 135 19 508 -11
667 -3 14 -7 41 -10 60 -46 293 -180 661 -347 954 -215 378 -521 743 -865
1033 -123 104 -283 220 -283 206 0 -4 4 -35 9 -68 6 -33 12 -82 15 -110 3 -27
8 -75 12 -105 8 -74 8 -342 0 -410 -49 -410 -199 -713 -496 -1003 -99 -96
-277 -244 -284 -236 -2 2 18 57 45 122 79 192 163 462 183 589 3 21 10 57 15
80 12 54 22 135 36 278 5 54 6 345 1 380 -2 14 -7 59 -11 100 -4 41 -18 129
-32 195 -13 66 -26 130 -29 143 -9 45 -85 262 -120 344 -166 388 -458 766
-814 1052 -108 87 -301 226 -313 226 -3 0 -25 13 -49 29 -45 30 -290 161 -302
161 -3 0 2 -17 13 -38z"/>
<path d="M3389 2526 c-2 -2 -29 -7 -59 -10 -314 -37 -673 -221 -937 -481 l-31
-31 159 -163 c88 -89 163 -161 168 -159 5 2 29 21 53 43 144 135 297 228 466
285 118 39 136 41 297 46 147 3 225 -8 355 -54 161 -58 328 -165 466 -299 13
-13 27 -23 32 -23 5 0 80 73 166 162 l158 162 -58 55 c-91 86 -141 126 -248
198 -265 177 -527 262 -827 269 -86 2 -158 2 -160 0z"/>
<path d="M6495 2515 c-341 -52 -628 -196 -903 -451 l-63 -59 159 -162 c87 -90
162 -163 166 -163 5 0 39 29 77 64 136 126 319 230 489 279 358 103 742 -6
1052 -299 26 -24 50 -44 54 -44 5 0 79 73 167 163 l158 162 -68 64 c-79 74
-222 182 -308 233 -187 112 -347 171 -575 213 -67 12 -325 12 -405 0z"/>
<path d="M5920 1183 c-169 -148 -352 -246 -550 -295 -104 -25 -315 -32 -405
-13 -237 50 -456 162 -631 323 -24 23 -50 42 -57 42 -6 0 -84 -72 -172 -160
l-160 -161 55 -51 c469 -435 1061 -578 1625 -393 217 71 518 256 665 409 l34
37 -164 163 -165 164 -75 -65z"/>
</g>
</svg>
